<?xml version="1.0" standalone="no"?>
<!DOCTYPE svg PUBLIC "-//W3C//DTD SVG 20010904//EN"
 "http://www.w3.org/TR/2001/REC-SVG-20010904/DTD/svg10.dtd">
<svg version="1.0" xmlns="http://www.w3.org/2000/svg"
 width="6732.000000pt" height="5669.000000pt" viewBox="0 0 6732.000000 5669.000000"
 preserveAspectRatio="xMidYMid meet">

<g transform="translate(0.000000,5669.000000) scale(0.100000,-0.100000)"
fill="#000000" stroke="none">
<path d="M33236 50904 c-12 -31 -6 -360 9 -454 22 -149 72 -289 126 -359 18
-23 19 -77 19 -1617 l0 -1594 -280 0 -280 0 0 -305 0 -305 120 0 120 0 0
-1331 c0 -1476 -3 -1410 66 -1526 91 -155 271 -242 497 -243 278 0 481 126
548 341 18 58 19 114 19 1410 l0 1349 120 0 120 0 0 305 0 305 -287 2 -288 3
-3 1583 -2 1583 29 42 c65 96 101 200 126 363 15 98 21 397 9 442 l-6 22 -388
0 c-344 0 -389 -2 -394 -16z m611 -284 c-12 -209 -57 -366 -131 -447 l-36 -40
0 -1622 0 -1621 -50 0 -50 0 0 1623 0 1624 -26 24 c-35 32 -70 93 -94 163 -25
74 -50 242 -50 340 l0 76 222 0 221 0 -6 -120z m413 -4045 l0 -125 -120 0
-120 0 0 -1413 c0 -1550 3 -1468 -59 -1555 -60 -82 -164 -123 -316 -123 -196
-1 -303 51 -361 176 l-24 50 0 1433 0 1432 -120 0 -120 0 0 125 0 125 620 0
620 0 0 -125z"/>
<path d="M33390 45025 l0 -1245 95 0 95 0 0 1245 0 1245 -95 0 -95 0 0 -1245z"/>
<path d="M33700 45025 l0 -1245 90 0 90 0 0 1245 0 1245 -90 0 -90 0 0 -1245z"/>
<path d="M8531 50819 c-301 -46 -543 -274 -606 -573 l-18 -86 -219 0 -218 0 0
-145 0 -145 -805 0 -805 0 0 -3300 0 -3300 2780 0 2780 0 0 3300 0 3300 -805
0 -805 0 0 145 0 145 -220 0 c-168 0 -221 3 -224 13 -2 6 -11 47 -21 91 -10
44 -37 119 -63 170 -37 73 -62 108 -131 177 -72 71 -102 94 -181 132 -52 26
-120 53 -151 61 -77 19 -212 26 -288 15z m234 -194 c197 -50 350 -203 400
-400 8 -32 15 -101 15 -152 l0 -93 220 0 220 0 0 -250 0 -250 -985 0 -985 0 0
250 0 250 224 0 225 0 -1 108 c-1 127 20 206 80 298 127 196 369 294 587 239z
m-2483 -3932 l3 -2998 2352 -3 2353 -2 2 2997 3 2998 118 3 117 3 0 -3121 0
-3120 -2595 0 -2595 0 0 3113 c0 1713 3 3117 7 3120 3 4 57 7 120 7 l113 0 2
-2997z m1188 2802 l0 -195 1170 0 1170 0 0 195 0 195 500 0 500 0 0 -2905 0
-2905 -2170 0 -2170 0 0 2905 0 2905 500 0 500 0 0 -195z"/>
<path d="M8430 49151 c0 -72 -2 -80 -21 -86 -11 -4 -22 -5 -23 -3 -2 1 -22 29
-46 61 -23 31 -45 57 -48 57 -4 0 -291 -211 -321 -236 -2 -2 15 -28 38 -58 22
-30 41 -58 41 -60 0 -3 -30 5 -67 19 -37 13 -68 23 -69 22 -7 -11 -134 -365
-134 -374 0 -6 29 -21 66 -33 85 -29 84 -48 -5 -72 -35 -9 -65 -19 -67 -21 -5
-5 92 -376 100 -384 3 -3 35 2 72 11 37 9 67 16 69 14 37 -52 37 -49 -2 -97
-20 -25 -40 -51 -45 -58 -6 -7 41 -50 147 -132 86 -67 161 -121 166 -121 5 0
26 23 46 51 29 38 43 49 58 45 11 -3 26 -6 33 -6 8 0 12 -22 12 -75 l0 -75
205 0 205 0 0 70 c0 66 1 71 26 80 14 6 26 10 28 10 1 0 20 -25 42 -55 21 -30
41 -55 44 -55 10 0 315 231 318 241 2 5 -15 35 -38 65 -47 62 -48 61 52 24
l47 -18 25 67 c61 162 116 315 113 317 -1 2 -32 13 -67 26 -87 31 -85 48 6 72
l71 18 -34 127 c-18 69 -41 156 -50 194 -19 75 -18 75 -103 52 -70 -19 -65
-19 -83 9 -15 23 -14 26 29 81 24 32 43 62 42 66 -2 4 -73 61 -158 128 l-155
120 -30 -37 c-70 -85 -69 -84 -98 -77 -27 7 -27 8 -27 86 l0 79 -205 0 -205 0
0 -79z m228 -167 l3 -61 66 -12 c37 -7 100 -28 141 -47 41 -19 78 -34 82 -34
3 0 21 20 39 44 20 27 39 42 47 39 21 -8 17 -21 -16 -63 -16 -21 -30 -42 -30
-46 0 -5 24 -37 53 -71 29 -34 66 -90 82 -124 l30 -61 40 7 c66 12 79 11 83
-7 2 -13 -9 -19 -52 -29 l-55 -12 2 -96 c1 -53 -1 -119 -6 -146 l-7 -51 50
-18 c46 -17 63 -37 41 -50 -5 -3 -25 1 -45 9 -53 22 -62 19 -91 -32 -15 -27
-50 -74 -76 -105 -27 -31 -49 -60 -49 -64 0 -4 12 -22 26 -41 24 -32 27 -63 6
-63 -7 0 -42 40 -67 78 -1 1 -36 -14 -77 -33 -41 -20 -106 -41 -144 -48 l-69
-13 -5 -54 c-4 -42 -9 -56 -22 -58 -15 -3 -18 5 -18 52 0 53 -1 56 -27 61 -84
17 -154 40 -211 68 l-64 32 -37 -44 c-31 -36 -39 -41 -49 -29 -9 12 -6 22 18
54 16 21 30 41 30 44 0 3 -22 32 -49 63 -26 32 -64 91 -84 132 l-37 74 -47
-14 c-60 -19 -61 -19 -65 3 -3 13 8 21 47 32 l50 16 6 119 c4 66 9 132 13 146
7 24 4 27 -48 44 -59 20 -61 22 -47 44 7 11 18 10 62 -7 l53 -20 47 72 c26 39
63 86 83 105 l35 34 -35 48 c-34 46 -37 69 -11 69 7 -1 27 -21 44 -45 l33 -44
65 30 c37 16 101 38 143 47 l77 18 3 62 c3 53 6 63 20 60 13 -3 18 -16 20 -64z"/>
<path d="M8526 48754 c-184 -59 -299 -243 -267 -426 66 -378 567 -446 730 -99
23 49 26 69 26 156 0 88 -3 107 -27 157 -37 79 -108 152 -184 189 -78 39 -199
49 -278 23z m177 -180 c57 -19 112 -77 127 -135 35 -127 -62 -252 -195 -252
-58 0 -97 18 -142 65 -39 41 -53 76 -53 135 0 88 52 158 139 189 48 17 69 17
124 -2z"/>
<path d="M6910 47380 l0 -90 1730 0 1730 0 0 90 0 90 -1730 0 -1730 0 0 -90z"/>
<path d="M6910 46840 l0 -90 660 0 660 0 0 90 0 90 -660 0 -660 0 0 -90z"/>
<path d="M8600 46840 l0 -90 885 0 885 0 0 90 0 90 -885 0 -885 0 0 -90z"/>
<path d="M6910 46225 l0 -95 405 0 405 0 0 95 0 95 -405 0 -405 0 0 -95z"/>
<path d="M8040 46225 l0 -95 1163 2 1162 3 0 90 0 90 -1162 3 -1163 2 0 -95z"/>
<path d="M6910 45640 l0 -90 1730 0 1730 0 0 90 0 90 -1730 0 -1730 0 0 -90z"/>
<path d="M6910 45100 l0 -90 660 0 660 0 0 90 0 90 -660 0 -660 0 0 -90z"/>
<path d="M8600 45100 l0 -90 885 0 885 0 0 90 0 90 -885 0 -885 0 0 -90z"/>
<path d="M6910 44490 l0 -90 405 0 405 0 0 90 0 90 -405 0 -405 0 0 -90z"/>
<path d="M8040 44490 l0 -90 1165 0 1165 0 0 90 0 90 -1165 0 -1165 0 0 -90z"/>
<path d="M46005 50823 c-595 -36 -1141 -245 -1595 -610 -111 -88 -308 -285
-394 -393 -547 -683 -740 -1567 -526 -2405 50 -196 105 -345 195 -530 214
-437 557 -821 981 -1098 103 -68 179 -151 198 -218 26 -88 36 -375 36 -1036
l0 -622 24 -28 24 -28 220 -3 220 -3 6 -34 c10 -53 82 -189 137 -258 92 -115
220 -204 364 -253 107 -37 294 -45 412 -19 264 58 485 257 568 513 l17 52 205
0 c232 0 253 5 273 66 10 28 11 179 7 618 -6 779 12 1040 80 1138 16 24 62 60
122 97 539 334 951 856 1151 1459 102 307 134 517 135 862 0 273 -12 385 -61
605 -223 1001 -1007 1802 -2004 2049 -265 66 -552 94 -795 79z m400 -193 c562
-62 1080 -303 1488 -690 900 -854 1054 -2232 365 -3262 -188 -282 -482 -568
-763 -743 -49 -30 -108 -71 -130 -89 -56 -46 -101 -128 -125 -221 -20 -84 -50
-416 -50 -567 l0 -88 -1055 0 -1055 0 0 118 c0 189 -18 452 -35 516 -37 140
-111 225 -317 364 -570 385 -958 960 -1088 1612 -39 196 -50 307 -50 512 0
405 83 766 260 1123 131 265 279 472 486 679 207 208 415 356 679 486 289 142
530 211 890 253 69 9 417 6 500 -3z m785 -5915 l0 -75 -1052 2 -1053 3 -3 59
c-2 32 -1 65 2 72 5 12 179 14 1056 14 l1050 0 0 -75z m0 -315 l0 -60 -1055 0
-1055 0 0 60 0 60 1055 0 1055 0 0 -60z m0 -302 l0 -63 -1052 1 -1053 1 -3 48
c-2 26 -1 54 2 61 5 12 173 14 1056 14 l1050 0 0 -62z m-505 -285 c-31 -74
-69 -129 -135 -194 -181 -179 -450 -220 -683 -103 -115 59 -250 207 -282 312
l-6 22 560 0 561 0 -15 -37z"/>
<path d="M45790 49875 c0 -179 -1 -195 -17 -195 -10 0 -28 -3 -39 -6 -19 -5
-32 13 -110 160 -49 91 -92 166 -97 166 -10 0 -566 -295 -590 -312 -15 -12 -8
-28 68 -173 47 -88 85 -160 85 -161 0 -1 -22 -21 -50 -44 l-49 -41 -149 95
c-82 53 -151 96 -155 96 -8 0 -367 -565 -367 -578 0 -6 63 -50 139 -98 l139
-88 -18 -46 c-9 -25 -23 -62 -30 -84 l-12 -39 -164 5 c-90 2 -165 4 -165 4 -4
-3 -25 -682 -22 -688 2 -5 57 -8 122 -8 184 0 174 6 195 -107 10 -52 16 -96
14 -97 -1 -2 -58 -33 -125 -70 -68 -37 -123 -70 -123 -73 0 -6 293 -543 317
-581 l14 -23 113 61 c63 33 116 60 118 60 3 0 37 -35 76 -78 l71 -79 -64 -109
c-49 -83 -61 -112 -52 -120 13 -12 574 -344 581 -344 2 0 32 47 65 104 l62
104 62 -20 c34 -10 83 -24 110 -29 l47 -11 0 -124 0 -124 345 0 344 0 3 122 3
122 40 12 c109 31 96 38 159 -80 32 -58 59 -106 62 -106 7 0 588 311 598 320
4 4 -18 58 -50 120 l-58 111 66 65 65 66 109 -71 c84 -54 112 -67 121 -58 12
13 363 564 363 571 0 2 -48 34 -107 71 -60 38 -113 73 -120 79 -9 8 -5 34 14
106 l25 95 147 -3 148 -4 7 184 c3 100 9 256 12 344 l7 162 -166 7 -165 7 -22
85 c-12 46 -19 87 -16 91 4 3 69 40 146 82 l139 76 -163 299 c-91 165 -169
301 -174 303 -5 1 -74 -33 -154 -77 -79 -44 -148 -81 -153 -82 -6 -1 -36 22
-68 52 l-57 55 90 152 c49 84 90 156 90 161 0 8 -573 351 -588 351 -4 0 -50
-72 -102 -160 -52 -88 -97 -160 -100 -160 -3 0 -36 9 -75 18 l-70 18 -3 192
-2 192 -345 0 -345 0 0 -195z m510 -164 l0 -179 98 -17 c53 -10 144 -33 201
-51 57 -19 107 -34 112 -34 4 0 47 65 94 145 47 80 88 145 91 145 8 0 248
-142 263 -155 11 -11 -1 -37 -73 -156 l-86 -144 42 -34 c24 -19 96 -87 160
-152 l117 -119 135 75 c74 41 139 75 143 75 5 0 43 -63 85 -140 l76 -140 -71
-40 c-40 -22 -100 -55 -134 -72 -35 -18 -63 -37 -63 -43 0 -5 13 -44 29 -85
30 -76 60 -185 81 -292 l11 -58 107 0 c59 0 124 -3 145 -6 l37 -7 0 -82 c0
-45 -3 -116 -6 -158 l-7 -77 -138 0 c-134 0 -139 -1 -139 -21 0 -45 -43 -229
-76 -324 -18 -56 -34 -103 -34 -107 0 -3 47 -36 105 -73 l105 -66 -37 -57
c-117 -184 -136 -212 -143 -212 -5 0 -52 28 -105 62 l-96 61 -32 -39 c-59 -72
-142 -156 -219 -221 l-77 -64 49 -93 c28 -51 50 -97 50 -102 0 -8 -247 -144
-275 -152 -5 -1 -32 41 -59 93 -27 53 -54 93 -60 91 -52 -22 -208 -68 -276
-81 -47 -9 -95 -18 -107 -21 -22 -4 -23 -9 -23 -109 l0 -105 -165 0 -165 0 0
105 c0 100 -1 105 -22 109 -13 3 -61 13 -108 22 -83 16 -194 50 -296 92 l-51
20 -52 -89 c-30 -49 -56 -91 -60 -93 -3 -2 -62 30 -131 71 -69 41 -130 78
-137 81 -9 5 4 35 42 101 30 51 55 96 55 100 0 3 -47 52 -104 109 -57 56 -128
136 -157 177 -30 40 -58 74 -63 74 -5 1 -54 -24 -109 -55 -55 -30 -103 -52
-107 -47 -14 14 -152 274 -149 277 2 2 51 30 109 62 58 31 107 59 108 60 2 1
-8 42 -22 91 -31 107 -45 183 -54 288 l-7 80 -65 6 c-36 4 -100 7 -142 8 l-77
1 5 153 c3 83 7 158 10 165 3 9 36 11 148 6 l144 -7 12 44 c22 88 70 226 105
303 20 44 32 82 28 86 -4 4 -63 42 -130 84 -68 43 -123 80 -123 84 0 6 149
243 164 259 8 9 42 -8 141 -72 72 -47 134 -85 139 -85 4 0 45 34 90 77 44 42
114 101 153 131 l73 54 -24 42 c-52 92 -138 258 -134 261 16 15 272 145 280
143 5 -2 43 -66 85 -143 41 -77 78 -143 81 -147 4 -4 45 4 92 18 47 13 124 32
173 40 l87 17 0 172 c0 94 3 175 7 178 3 4 78 7 165 7 l158 0 0 -179z"/>
<path d="M46028 49329 c-365 -32 -692 -226 -895 -531 -126 -190 -189 -384
-200 -613 -10 -224 25 -395 122 -592 204 -415 618 -673 1079 -673 591 0 1081
406 1192 988 25 128 22 329 -5 461 -127 606 -677 1015 -1293 960z m283 -195
c436 -75 777 -424 840 -863 25 -175 -8 -406 -80 -565 -71 -157 -215 -328 -356
-423 -374 -251 -845 -238 -1203 34 -376 287 -504 810 -302 1240 197 421 644
655 1101 577z"/>
<path d="M46032 48979 c-208 -25 -421 -142 -559 -308 -62 -74 -143 -233 -169
-331 -25 -92 -26 -330 -1 -419 47 -172 103 -267 232 -396 129 -129 224 -185
396 -232 100 -28 329 -25 433 5 300 87 535 329 607 627 30 122 30 296 0 410
-111 420 -512 696 -939 644z m243 -194 c98 -20 237 -92 312 -160 222 -201 285
-525 154 -790 -118 -238 -342 -378 -601 -379 -120 0 -181 14 -299 71 -79 38
-108 59 -176 127 -134 135 -199 289 -198 471 0 193 58 330 198 471 71 72 106
99 167 129 144 70 295 91 443 60z"/>
<path d="M48270 48012 c0 -380 -168 -846 -429 -1187 -125 -164 -361 -378 -538
-488 -318 -196 -712 -316 -1045 -317 l-58 0 0 -90 0 -90 84 0 c100 0 281 22
416 51 239 52 538 181 755 326 287 193 513 431 687 726 189 318 287 648 313
1050 l6 97 -95 0 -96 0 0 -78z"/>
<path d="M20508 50404 l-3 -337 -145 -38 c-155 -40 -344 -104 -448 -150 -35
-16 -70 -29 -77 -29 -7 0 -98 114 -201 253 -103 138 -193 258 -199 265 -10 12
-103 -54 -514 -362 -335 -252 -499 -381 -494 -389 4 -7 86 -118 184 -248 97
-129 182 -244 189 -255 12 -19 5 -30 -69 -119 -44 -54 -109 -139 -144 -188
-34 -49 -67 -96 -73 -105 -10 -14 -48 -2 -318 97 -169 62 -309 112 -311 110
-2 -2 -98 -260 -213 -574 -116 -313 -213 -577 -217 -586 -5 -13 20 -26 132
-67 76 -27 212 -78 304 -111 l165 -62 -13 -87 c-7 -48 -16 -189 -19 -314 -6
-197 -9 -228 -23 -232 -9 -3 -146 -39 -306 -81 -159 -42 -290 -77 -291 -78 -3
-3 313 -1208 318 -1212 3 -3 68 14 450 114 l147 39 70 -129 c83 -154 193 -321
290 -444 39 -49 69 -95 67 -101 -3 -7 -82 -113 -177 -235 -95 -123 -176 -229
-181 -235 -10 -13 977 -778 992 -769 5 3 90 109 187 236 97 126 182 228 188
225 5 -3 67 -29 137 -60 183 -80 364 -138 591 -190 l27 -6 0 -300 0 -300 630
0 630 0 0 300 0 300 28 6 c220 52 414 115 577 186 50 22 95 42 102 45 6 2 90
-100 193 -237 l181 -241 38 28 c21 15 247 185 503 377 l466 349 -184 245 -183
245 25 31 c96 118 230 305 290 404 2 2 132 -44 290 -102 158 -58 291 -103 294
-99 15 17 431 1165 425 1171 -3 4 -135 54 -293 112 l-287 106 1 29 c0 17 7
104 14 194 7 91 10 220 7 287 -4 109 -3 124 12 128 9 3 146 39 306 81 159 42
291 78 293 80 3 3 -307 1204 -313 1213 -1 1 -140 -34 -308 -78 -168 -44 -312
-80 -319 -80 -7 0 -31 35 -53 77 -74 142 -226 364 -338 496 -35 41 -46 61 -39
70 131 167 392 510 391 515 0 8 -963 750 -983 758 -8 3 -87 -91 -216 -259
l-203 -263 -123 53 c-150 64 -330 124 -481 161 l-113 27 0 338 0 337 -630 0
-630 0 -2 -336z m1072 -169 l0 -324 38 -6 c273 -47 544 -134 811 -261 63 -30
117 -50 120 -45 24 37 378 490 384 491 7 0 654 -495 686 -525 11 -11 -17 -52
-171 -252 -101 -131 -187 -244 -191 -250 -5 -8 22 -47 74 -105 162 -183 305
-392 427 -625 35 -68 66 -123 70 -123 3 0 136 34 295 76 159 41 293 72 297 67
8 -9 220 -812 220 -835 0 -10 -72 -33 -262 -83 -145 -37 -277 -72 -293 -76
l-31 -9 9 -92 c13 -142 1 -542 -21 -682 l-19 -118 31 -13 c17 -7 139 -52 271
-100 132 -48 244 -92 249 -96 8 -7 -276 -802 -294 -822 -4 -5 -130 37 -280 92
-151 56 -274 100 -275 98 -1 -1 -35 -58 -76 -125 -85 -143 -224 -332 -327
-446 -39 -44 -68 -84 -65 -90 4 -6 81 -109 171 -229 90 -120 162 -222 160
-227 -4 -10 -699 -533 -702 -528 -2 2 -79 105 -172 229 l-170 227 -49 -26
c-258 -131 -538 -226 -845 -285 l-65 -13 -3 -287 -2 -287 -443 2 -442 3 -3
285 -2 285 -140 27 c-251 50 -488 132 -731 254 l-126 63 -173 -225 c-95 -123
-175 -224 -179 -224 -5 0 -236 177 -658 504 l-43 33 175 226 c96 125 175 229
175 232 0 3 -39 52 -86 108 -169 200 -291 388 -407 625 -44 90 -75 142 -84
142 -9 0 -137 -32 -285 -71 -149 -38 -272 -69 -274 -66 -6 6 -226 849 -222
852 2 2 131 36 288 77 l285 75 -4 169 c-4 195 11 403 42 591 l23 132 -26 10
c-14 6 -142 53 -284 106 -143 52 -261 97 -263 98 -3 4 295 819 303 826 2 2
135 -44 295 -103 161 -58 293 -105 294 -104 1 2 29 46 61 98 76 124 209 300
322 425 l89 99 -190 253 c-104 140 -188 255 -186 257 15 12 686 513 695 519 7
4 85 -91 203 -248 105 -140 193 -255 195 -255 2 0 59 26 127 59 204 97 397
161 637 211 79 17 145 30 147 30 3 0 5 143 5 318 0 175 3 322 7 325 3 4 204 7
445 7 l438 0 0 -325z"/>
<path d="M20930 49593 c-25 -2 -92 -10 -150 -19 -733 -105 -1370 -510 -1783
-1134 -94 -142 -226 -416 -281 -580 -79 -240 -122 -474 -128 -700 l-3 -115 90
0 90 0 7 115 c38 597 260 1111 663 1529 412 428 978 688 1567 719 l133 7 3 93
3 92 -83 -2 c-46 -1 -103 -3 -128 -5z"/>
<path d="M20940 49194 c-14 -2 -65 -9 -115 -15 -207 -26 -486 -116 -685 -221
-1035 -545 -1451 -1804 -942 -2852 311 -639 896 -1073 1611 -1193 164 -28 513
-25 684 6 864 153 1534 778 1741 1622 74 304 75 718 1 1010 -159 633 -574
1148 -1150 1429 -313 153 -613 222 -958 219 -89 -1 -173 -3 -187 -5z m365
-184 c393 -37 768 -188 1066 -428 102 -82 291 -280 362 -379 181 -254 299
-539 354 -858 23 -139 23 -461 0 -600 -63 -366 -208 -686 -432 -954 -473 -565
-1195 -821 -1910 -676 -741 150 -1334 717 -1519 1454 -40 157 -56 294 -56 477
1 364 83 675 262 987 297 520 864 898 1449 966 196 23 272 25 424 11z"/>
<path d="M58187 50691 c-275 -126 -469 -314 -593 -576 -69 -145 -96 -260 -101
-440 -6 -169 8 -276 53 -410 115 -345 408 -634 741 -732 l63 -18 0 -497 c0
-296 -4 -498 -9 -498 -26 0 -123 -107 -153 -168 l-33 -67 -3 -1769 c-2 -1966
-7 -1821 66 -1930 46 -69 122 -127 204 -156 77 -27 291 -39 379 -21 170 35
285 144 318 299 8 38 11 541 11 1787 0 1689 0 1735 -19 1796 -25 79 -78 156
-136 198 l-45 32 0 498 0 497 73 23 c164 53 345 168 470 300 473 502 404 1300
-148 1714 -64 48 -323 187 -349 187 -3 0 -6 -229 -6 -510 l0 -510 -330 0 -330
0 0 510 c0 281 -3 510 -7 510 -5 0 -57 -22 -116 -49z m448 -1151 l515 0 0 455
c0 522 -13 477 105 378 227 -191 347 -448 347 -743 0 -130 -19 -236 -63 -350
-107 -279 -365 -509 -655 -585 -92 -24 -418 -21 -509 4 -164 46 -306 133 -437
269 -186 193 -277 436 -265 707 13 291 146 542 384 730 l58 45 3 -455 2 -455
515 0z m115 -1508 l0 -448 -110 0 -110 0 0 448 0 448 110 0 110 0 0 -448z m21
-648 c69 -19 125 -64 150 -118 18 -39 19 -110 19 -1784 0 -1458 -2 -1748 -14
-1775 -31 -72 -104 -112 -225 -123 -80 -8 -199 9 -251 36 -54 27 -97 85 -110
144 -8 36 -10 560 -8 1761 3 1707 3 1710 24 1749 44 84 132 124 278 125 45 1
105 -6 137 -15z"/>
<path d="M59260 49663 c-1 -63 -32 -174 -74 -258 -109 -220 -306 -352 -568
-380 l-58 -6 0 -90 0 -89 39 0 c61 0 204 28 275 54 176 63 354 211 448 371 61
103 107 242 115 345 l6 80 -92 0 -91 0 0 -27z"/>
<path d="M58533 46994 c-26 -15 -54 -44 -70 -72 l-28 -47 -3 -1305 c-2 -959 0
-1319 8 -1359 40 -184 289 -218 377 -52 l23 44 0 1329 c0 1442 3 1367 -53
1426 -62 66 -177 83 -254 36z m121 -170 c3 -9 6 -591 6 -1294 0 -1056 -2
-1279 -13 -1289 -8 -6 -17 -8 -20 -4 -9 8 -9 2588 0 2596 11 11 20 8 27 -9z"/>
<path d="M58188 38326 c-122 -55 -168 -82 -267 -156 -440 -332 -587 -957 -340
-1454 111 -224 305 -425 507 -524 l52 -26 0 -1618 0 -1618 -52 -26 c-155 -79
-338 -240 -431 -380 -92 -140 -157 -295 -188 -454 -20 -100 -17 -348 5 -450
82 -384 331 -689 696 -852 60 -26 112 -48 115 -48 3 0 5 236 5 525 l0 525 343
-2 342 -3 3 -522 c1 -288 4 -523 7 -523 18 0 249 118 308 157 206 137 382 368
461 608 83 247 75 553 -20 798 -95 248 -291 475 -516 599 l-77 43 -1 1617 0
1617 58 32 c273 155 467 385 563 667 41 122 59 235 59 377 0 67 -7 160 -15
206 -59 339 -270 639 -575 819 -45 27 -225 110 -237 110 -2 0 -3 -234 -3 -520
l0 -520 -345 0 -345 0 0 520 c0 286 -3 520 -7 520 -5 0 -52 -20 -105 -44z
m1134 -364 c132 -122 237 -298 285 -481 22 -83 26 -117 26 -246 0 -130 -3
-163 -26 -249 -81 -302 -290 -543 -585 -672 -60 -27 -76 -38 -72 -51 2 -10 6
-793 10 -1740 l5 -1722 83 -41 c116 -56 184 -103 274 -188 261 -249 364 -611
274 -966 -57 -223 -200 -430 -389 -564 l-47 -33 0 470 0 471 -530 0 -530 0 0
-465 c0 -256 -2 -465 -5 -465 -14 0 -123 88 -177 143 -113 117 -194 257 -245
426 -31 107 -43 309 -23 429 53 331 278 618 588 752 l83 36 3 1704 c2 938 5
1720 7 1739 4 34 4 34 -76 68 -279 119 -496 368 -575 658 -28 102 -38 313 -20
422 39 242 175 473 363 617 41 31 76 56 80 56 4 0 8 -208 9 -462 l3 -463 528
-3 527 -2 0 470 0 471 45 -31 c24 -17 72 -56 107 -88z"/>
<path d="M59350 37149 c0 -58 -32 -175 -70 -254 -108 -223 -311 -367 -558
-395 -47 -5 -86 -11 -87 -12 -1 -2 -5 -43 -9 -92 l-7 -89 93 6 c117 8 200 29
306 78 291 134 483 405 517 727 l7 62 -96 0 -96 0 0 -31z"/>
<path d="M58535 36132 c-51 -24 -101 -80 -114 -129 -15 -54 -15 -2863 0 -2918
14 -51 81 -116 136 -133 58 -17 132 -14 178 7 47 22 99 74 114 114 8 20 11
479 11 1476 l0 1448 -23 44 c-35 66 -101 103 -191 107 -53 2 -81 -2 -111 -16z
m133 -174 c9 -9 12 -337 12 -1415 0 -1401 0 -1402 -20 -1413 -12 -6 -30 -8
-40 -5 -20 6 -20 24 -20 1420 0 1121 3 1414 13 1418 22 9 43 7 55 -5z"/>
<path d="M58445 32555 c-324 -73 -571 -300 -670 -614 -14 -47 -29 -120 -32
-163 l-6 -78 90 0 c99 0 102 2 103 70 0 86 78 268 153 359 120 144 279 229
474 253 l93 11 0 89 0 88 -72 -1 c-40 0 -100 -7 -133 -14z"/>
<path d="M20297 38036 l-197 -296 -109 0 -110 0 -101 115 -102 115 -289 0
-289 0 0 -625 0 -625 321 2 321 3 42 105 42 105 110 0 c110 0 111 0 195 -42
189 -94 321 -263 395 -508 l28 -90 4 -437 3 -438 155 0 154 0 0 -729 0 -728
-47 -7 c-83 -11 -168 -77 -213 -163 -51 -100 -50 -63 -50 -1330 l0 -1181 -32
-21 c-118 -73 -202 -235 -223 -428 l-7 -63 904 0 904 0 -8 68 c-22 191 -91
331 -203 411 l-45 32 0 1162 c0 1278 1 1240 -61 1358 -48 90 -126 147 -216
157 l-43 5 2 726 3 726 158 3 157 3 0 406 0 407 101 350 c55 192 114 376 130
408 77 152 186 210 330 174 150 -38 334 -155 516 -330 l101 -97 82 53 c94 61
91 42 38 225 -196 685 -653 1140 -1293 1286 -85 19 -127 21 -726 24 l-635 4
-197 -295z m1524 84 c426 -94 792 -377 998 -770 49 -93 115 -249 109 -256 -2
-2 -44 26 -93 61 -272 196 -504 250 -692 163 -74 -34 -182 -148 -226 -239 -23
-47 -72 -197 -129 -397 l-92 -322 -487 0 -486 0 -22 81 c-42 159 -131 318
-245 438 -78 81 -161 141 -273 194 l-88 42 -196 3 -197 3 -43 -110 -44 -111
-167 0 -168 0 0 445 0 445 154 0 155 0 102 -115 102 -115 203 0 204 0 192 290
193 289 575 1 c529 0 582 -2 661 -20z m-151 -2235 l0 -285 -465 0 -465 0 0
285 0 285 465 0 465 0 0 -285z m-320 -1200 l0 -725 -150 0 -150 0 0 725 0 725
150 0 150 0 0 -725z m252 -942 c55 -58 53 7 58 -1341 l5 -1253 53 -18 c63 -22
115 -68 148 -133 l24 -48 -685 0 c-377 0 -685 3 -685 8 0 4 14 30 30 59 35 60
82 100 142 118 l43 12 5 1249 c5 1191 6 1251 24 1292 37 85 19 82 440 82 l372
0 26 -27z"/>
<path d="M20197 37348 c-4 -29 -7 -72 -7 -94 0 -41 1 -42 41 -48 67 -11 182
-60 257 -110 155 -103 268 -269 315 -463 25 -106 19 -102 135 -82 l64 11 -6
50 c-16 122 -89 298 -171 414 -62 86 -189 202 -279 253 -76 43 -235 103 -307
115 l-36 6 -6 -52z"/>
<path d="M42177 37684 c-411 -64 -756 -276 -999 -615 -54 -75 -198 -350 -198
-378 0 -8 182 -11 660 -11 l660 0 0 -465 0 -465 -665 0 -664 0 49 -111 c95
-211 198 -359 358 -511 392 -371 968 -498 1487 -327 355 118 674 390 849 725
35 66 39 70 66 66 27 -4 29 -7 22 -31 -11 -41 -6 -278 7 -351 23 -125 172
-466 311 -715 182 -326 387 -608 639 -882 l121 -131 0 -331 0 -331 -130 0
-130 0 0 -715 0 -715 1720 0 1720 0 0 715 0 715 -110 0 -110 0 0 309 0 308
203 176 c112 97 225 203 251 236 58 75 127 203 158 296 l23 70 3 688 c3 673 3
687 22 687 14 0 28 -17 49 -59 134 -263 394 -526 654 -658 218 -110 527 -175
757 -158 288 21 518 98 745 249 247 166 419 372 546 657 27 60 49 111 49 114
0 3 -299 5 -665 5 l-665 0 2 463 3 462 662 3 662 2 -33 78 c-92 214 -181 348
-336 502 -241 242 -521 380 -857 425 -531 71 -1059 -151 -1381 -580 -42 -57
-97 -140 -120 -184 -36 -67 -48 -81 -68 -81 -21 0 -24 5 -24 33 0 49 -27 144
-58 201 -34 65 -143 174 -208 208 -174 93 -398 74 -558 -48 l-45 -34 -33 62
c-143 269 -510 349 -751 165 -26 -21 -51 -37 -55 -37 -4 1 -18 24 -32 53 -14
29 -54 81 -90 117 -248 248 -663 178 -817 -138 l-39 -79 -52 48 c-113 104
-277 154 -423 130 -139 -22 -278 -110 -349 -222 -61 -94 -81 -168 -87 -321
l-6 -138 -563 0 -564 0 -29 59 c-151 298 -428 557 -738 691 -242 104 -550 144
-806 104z m448 -190 c428 -70 808 -380 979 -799 24 -60 24 -60 63 -57 21 2
261 5 533 8 l495 5 -35 -29 c-19 -16 -75 -64 -125 -106 l-90 -76 -215 0 c-118
0 -231 -5 -251 -10 -52 -15 -99 -49 -133 -98 -25 -35 -31 -55 -34 -112 -4 -60
-1 -75 24 -119 24 -46 79 -101 101 -101 34 -1 32 -19 -12 -106 -24 -49 -45
-95 -45 -103 0 -11 -19 -13 -102 -8 -57 3 -112 9 -124 12 -18 6 -25 -4 -58
-84 -69 -165 -195 -346 -325 -461 -523 -469 -1306 -449 -1796 44 -55 56 -124
137 -154 181 l-53 80 608 5 609 5 3 648 2 647 -611 0 c-571 0 -611 1 -605 17
14 37 124 179 191 247 301 308 720 442 1160 370z m3812 -14 c71 -35 115 -82
152 -160 l26 -55 0 -280 0 -280 -325 0 -325 0 0 280 0 280 26 55 c82 175 274
244 446 160z m3664 4 c266 -46 507 -171 699 -364 53 -52 121 -133 152 -180
l57 -85 -610 -3 -609 -2 0 -650 0 -650 611 0 610 0 -63 -92 c-154 -227 -390
-402 -661 -493 -462 -154 -980 -31 -1327 315 -124 124 -237 297 -295 453 l-18
47 -1111 0 -1111 0 58 24 c74 31 119 62 182 126 l49 50 81 0 c66 0 94 -5 146
-27 58 -25 76 -27 189 -28 114 0 131 2 191 28 62 26 73 27 229 27 154 0 167
-1 229 -27 53 -22 86 -28 172 -31 98 -4 112 -2 196 27 50 17 102 31 117 31 37
0 96 26 129 58 49 46 71 99 74 182 2 41 7 154 11 250 l7 175 82 0 82 0 61 122
c71 144 180 294 283 388 181 167 424 287 662 329 112 20 330 20 446 0z m-4552
-189 c68 -37 125 -102 151 -171 17 -48 20 -78 20 -239 l0 -185 -325 0 -325 0
0 185 c0 224 12 268 94 351 72 72 135 95 246 91 72 -2 93 -8 139 -32z m1695
19 c65 -22 157 -109 187 -176 24 -53 24 -55 24 -418 l0 -365 -33 -67 c-18 -36
-49 -81 -69 -99 -134 -117 -329 -113 -453 11 -23 23 -54 67 -69 99 l-26 56 -3
339 c-3 318 -2 342 17 406 42 137 166 230 307 230 39 0 92 -7 118 -16z m868
-199 c70 -35 119 -84 154 -153 l29 -57 0 -280 0 -280 -28 -55 c-37 -72 -86
-121 -155 -156 -48 -24 -69 -29 -137 -29 -136 0 -238 63 -297 183 l-33 67 0
270 c0 270 0 270 26 325 45 97 109 152 212 186 62 21 165 11 229 -21z m-1502
-614 c0 -10 -11 -62 -25 -116 -35 -141 -92 -251 -172 -336 -73 -77 -120 -109
-208 -139 -56 -19 -84 -20 -680 -20 l-622 0 -27 -25 c-19 -18 -26 -34 -26 -62
0 -53 21 -79 83 -98 79 -26 253 -119 332 -178 244 -182 403 -434 465 -738 25
-119 35 -329 23 -446 -7 -61 -6 -84 3 -87 6 -2 48 -8 92 -11 l80 -7 7 108 c33
474 -91 862 -370 1162 l-77 82 1406 0 1406 0 0 -637 c0 -717 -1 -719 -70 -861
-53 -106 -111 -168 -372 -394 l-208 -180 0 -349 0 -349 -1290 0 -1290 0 -2
378 c-3 351 -4 377 -20 376 -10 -1 -15 2 -12 8 3 5 -32 48 -78 96 -323 337
-603 741 -803 1157 -181 377 -205 512 -139 775 27 105 103 268 161 344 21 27
175 165 343 307 l305 258 893 1 c865 0 892 -1 892 -19z m-2445 -296 c-43 -40
-55 -45 -96 -45 -59 0 -88 27 -71 65 11 24 14 25 114 25 l103 -1 -50 -44z
m3715 -4095 l0 -530 -1535 0 -1535 0 0 530 0 530 1535 0 1535 0 0 -530z"/>
<path d="M42460 37241 l0 -90 58 -6 c325 -38 586 -207 736 -478 66 -120 116
-304 116 -429 l0 -49 93 3 92 3 -3 80 c-12 384 -246 749 -595 931 -147 76
-318 124 -443 124 l-54 0 0 -89z"/>
<path d="M48993 36118 c10 -181 79 -386 183 -545 55 -83 203 -233 290 -293
155 -107 357 -181 535 -196 l79 -7 0 95 0 95 -77 6 c-199 16 -428 129 -569
279 -141 150 -232 342 -249 521 -3 34 -8 81 -11 105 l-5 42 -91 0 -91 0 6
-102z"/>
<path d="M47352 32404 c-61 -23 -145 -103 -173 -166 -34 -76 -33 -193 1 -263
31 -64 91 -124 155 -155 69 -33 189 -35 257 -3 70 32 131 94 163 164 24 55 27
70 23 143 -7 122 -64 213 -170 267 -56 29 -192 36 -256 13z m176 -184 c37 -23
72 -75 72 -108 0 -73 -62 -132 -139 -132 -37 0 -49 6 -82 39 -35 34 -39 44
-39 88 0 55 17 85 64 114 40 24 83 24 124 -1z"/>
<path d="M33990 34545 l0 -3055 295 0 295 0 0 189 0 190 78 17 c42 9 111 27
152 40 41 13 77 21 80 18 3 -3 44 -78 91 -166 47 -88 89 -160 92 -161 11 -3
876 458 877 467 0 5 -41 85 -91 178 -49 93 -89 172 -87 176 2 4 62 65 135 136
l132 129 153 -98 c84 -54 163 -104 174 -112 21 -13 30 0 289 407 157 247 264
425 259 430 -5 5 -88 59 -184 120 -96 62 -177 114 -179 116 -2 2 13 61 33 131
20 71 42 157 49 193 l13 65 237 -4 237 -4 0 69 c0 38 7 254 15 479 8 226 15
420 15 433 0 22 -2 22 -122 23 -68 1 -184 4 -258 8 l-135 6 -13 60 c-7 33 -29
113 -49 178 -20 64 -34 119 -32 121 2 2 105 59 229 126 124 68 226 124 228
125 3 3 -466 857 -477 868 -6 6 -107 -44 -250 -123 -133 -72 -245 -130 -250
-128 -5 2 -62 55 -128 118 l-120 115 143 240 c79 132 143 245 143 251 1 10
-833 509 -851 509 -5 0 -75 -112 -156 -250 -132 -222 -151 -250 -173 -249 -13
1 -85 18 -159 37 l-135 35 -3 301 -2 301 -295 0 -295 0 0 -3055z m410 2587 l0
-289 140 -27 c77 -14 208 -48 290 -75 l150 -49 101 172 c166 280 184 309 192
309 9 -1 487 -281 521 -306 17 -13 10 -28 -118 -244 -75 -127 -136 -235 -136
-241 0 -5 33 -36 73 -68 82 -67 240 -221 313 -307 l50 -58 229 125 c127 69
233 126 237 126 7 0 304 -539 302 -548 -1 -3 -98 -59 -215 -123 -118 -65 -215
-122 -217 -127 -1 -5 14 -50 33 -101 48 -123 99 -303 120 -423 l17 -98 112 0
c61 0 169 -3 240 -7 l128 -6 -6 -181 c-3 -100 -9 -243 -12 -318 l-6 -137 -47
4 c-25 3 -125 7 -222 9 l-176 5 -12 -77 c-20 -126 -66 -308 -115 -447 -25 -71
-43 -131 -40 -134 2 -2 79 -53 172 -111 92 -59 166 -112 165 -118 -4 -18 -327
-522 -335 -522 -4 0 -77 45 -163 100 -86 55 -160 100 -164 100 -4 0 -38 -35
-74 -78 -78 -93 -247 -257 -335 -326 l-62 -49 44 -81 c111 -207 130 -245 125
-250 -8 -8 -552 -297 -554 -294 -1 2 -39 73 -84 159 l-83 155 -96 -34 c-124
-43 -294 -87 -399 -103 l-83 -12 -2 -176 -3 -176 -110 0 -110 0 0 495 0 495
30 3 c17 1 80 9 140 18 779 108 1416 706 1574 1479 74 358 39 748 -95 1081
-213 529 -654 934 -1196 1098 -109 33 -315 72 -408 78 l-45 3 -3 498 -2 497
115 0 115 0 0 -288z m-93 -907 c721 -102 1277 -625 1435 -1346 20 -91 22 -132
22 -334 0 -200 -3 -243 -22 -332 -105 -483 -389 -881 -804 -1128 -209 -124
-444 -200 -715 -229 l-43 -4 0 188 0 189 48 6 c102 13 269 57 357 94 413 177
692 519 786 964 28 130 30 349 6 482 -50 275 -184 524 -388 719 -203 195 -455
319 -724 357 l-85 12 0 189 c0 144 3 188 13 188 6 0 58 -7 114 -15z m78 -590
c423 -121 735 -469 811 -906 23 -133 15 -329 -20 -462 -30 -116 -106 -282
-173 -376 -98 -137 -263 -280 -413 -356 -115 -58 -304 -114 -387 -115 l-33 0
0 1126 0 1127 63 -6 c34 -3 103 -18 152 -32z"/>
<path d="M32450 37553 c-324 -32 -600 -159 -810 -372 -114 -116 -178 -219
-228 -363 -31 -91 -36 -118 -40 -230 l-5 -128 -72 0 c-285 0 -551 -137 -728
-374 -212 -286 -270 -652 -146 -919 12 -27 10 -30 -43 -85 -155 -160 -235
-369 -245 -637 -11 -294 70 -546 230 -720 l57 -63 -34 -104 c-44 -131 -61
-246 -53 -362 25 -362 258 -659 598 -764 95 -29 248 -45 341 -34 l78 8 11 -33
c6 -18 16 -33 23 -33 7 0 20 -25 30 -55 27 -88 103 -229 167 -315 170 -225
425 -379 750 -452 90 -20 130 -23 294 -22 173 1 199 3 289 27 218 59 361 155
447 302 63 107 58 -102 60 2783 l2 2637 -79 57 c-255 185 -595 281 -894 251z
m380 -211 c118 -32 229 -78 323 -134 l87 -52 0 -367 0 -367 -32 -28 c-181
-153 -570 -108 -775 89 -81 78 -115 144 -121 242 l-4 73 -75 11 c-111 17 -103
22 -103 -72 0 -188 90 -346 262 -460 166 -111 307 -151 523 -151 151 0 193 8
308 58 16 8 17 -21 17 -534 0 -513 -1 -542 -17 -535 -71 30 -229 79 -292 91
-151 27 -328 13 -451 -36 -83 -33 -183 -104 -248 -176 -59 -65 -98 -127 -208
-324 -101 -182 -212 -274 -307 -255 -89 19 -135 67 -250 260 -36 61 -84 131
-107 158 l-42 47 16 47 c31 90 19 183 -35 267 l-31 49 -64 -65 -65 -65 17 -35
c29 -62 0 -139 -66 -173 -30 -16 -53 -12 -82 13 -16 13 -24 9 -89 -44 l-72
-58 42 -37 c45 -40 115 -69 166 -69 17 0 56 7 86 16 l54 16 30 -35 c16 -19 66
-95 109 -168 95 -159 158 -227 253 -272 61 -28 78 -32 158 -32 82 0 96 3 158
33 119 59 195 149 322 382 82 150 139 227 209 280 187 141 407 144 733 8 l73
-30 0 -508 0 -508 -42 10 c-24 5 -74 8 -113 5 -257 -19 -515 -265 -557 -530
-17 -110 -1 -207 68 -417 49 -152 57 -186 58 -255 1 -172 -96 -286 -245 -288
-67 0 -60 9 -78 -106 -6 -36 -8 -67 -6 -70 11 -11 116 -12 166 -2 135 28 235
108 296 236 73 154 69 282 -16 540 -82 248 -86 331 -19 457 42 79 150 180 234
220 80 37 167 43 222 14 l32 -17 -2 -857 -3 -857 -24 -44 c-119 -225 -521
-320 -911 -215 -336 89 -594 310 -699 596 -28 75 -48 160 -61 257 -11 82 -11
84 15 122 42 64 93 109 277 246 95 72 197 156 225 187 173 189 213 404 126
681 -25 82 -111 275 -122 275 -3 0 -41 -18 -83 -40 l-76 -40 43 -93 c140 -300
130 -500 -33 -665 -31 -32 -137 -118 -234 -190 -233 -174 -297 -249 -334 -395
-9 -34 -21 -65 -28 -69 -6 -4 -59 -8 -117 -8 -202 0 -348 58 -485 195 -191
189 -247 445 -156 720 55 167 174 235 412 235 106 0 181 -21 330 -91 72 -34
133 -60 135 -57 5 5 45 150 45 164 0 14 -171 97 -270 131 -62 21 -99 27 -211
31 -171 6 -271 -12 -382 -67 l-77 -39 -48 54 c-121 136 -193 379 -178 605 17
269 130 477 318 586 43 25 78 48 78 51 0 2 -24 30 -53 62 -87 94 -116 174
-117 320 0 233 126 489 314 639 76 60 206 124 291 142 68 14 198 17 265 6 42
-7 47 -12 82 -70 20 -34 67 -99 106 -143 l70 -81 -13 -35 c-33 -98 -164 -253
-275 -325 -30 -20 -57 -38 -59 -39 -8 -6 54 -156 66 -161 18 -7 89 36 178 108
86 69 189 193 230 277 16 31 30 58 31 60 1 2 31 -13 67 -33 70 -39 214 -91
276 -101 l38 -6 12 63 c6 35 14 76 17 92 4 21 2 27 -13 27 -38 0 -214 69 -284
110 -94 55 -220 176 -279 267 -107 163 -131 315 -76 477 101 295 375 515 746
597 118 26 389 21 500 -9z"/>
<path d="M8265 37170 c-4 -66 -11 -122 -14 -125 -4 -2 -65 -13 -136 -25 -306
-49 -622 -148 -837 -262 -90 -48 -78 -17 -134 -342 -36 -206 -40 -220 -64
-233 -14 -8 -83 -46 -155 -84 -858 -464 -1548 -1305 -1871 -2284 -125 -379
-193 -753 -219 -1196 l-7 -106 -48 -17 c-68 -24 -152 -87 -193 -143 -84 -116
-116 -224 -124 -415 l-6 -138 4177 0 4176 0 1 48 c8 249 -41 420 -153 538 -55
59 -111 95 -174 114 l-41 12 -6 142 c-37 795 -311 1605 -760 2248 -145 207
-248 329 -447 529 -309 311 -572 506 -940 697 -69 35 -127 66 -128 67 -4 3
-81 490 -82 511 0 13 -157 84 -318 145 -189 71 -470 143 -687 177 l-50 7 -7
60 c-4 33 -10 90 -13 128 l-7 67 -363 0 -363 0 -7 -120z m565 -83 c0 -7 29
-368 65 -802 36 -433 64 -790 62 -792 -2 -2 -148 -2 -323 -1 l-319 3 62 750
c34 413 62 774 62 803 l1 52 195 0 c155 0 195 -3 195 -13z m-657 -984 c-34
-412 -62 -760 -62 -775 l-1 -28 529 0 529 0 -4 38 c-4 33 -124 1490 -124 1504
0 8 197 -28 315 -58 201 -51 542 -173 551 -198 4 -13 41 -242 180 -1141 54
-346 99 -632 101 -634 1 -2 42 3 90 10 78 13 88 17 86 34 -5 42 -164 1071
-169 1094 -5 22 1 20 91 -28 388 -207 782 -540 1080 -911 514 -640 822 -1436
885 -2290 5 -74 10 -150 10 -167 l0 -33 -3622 0 -3621 0 6 148 c31 742 304
1533 739 2145 263 369 626 724 983 962 134 89 305 188 313 181 3 -3 -39 -251
-92 -552 -54 -300 -95 -551 -93 -558 5 -12 163 -44 171 -35 2 2 54 285 115
629 62 344 132 738 157 875 24 138 48 259 53 271 11 24 187 100 366 157 146
47 395 102 475 106 l26 1 -63 -747z m4267 -3784 c91 -41 149 -124 176 -248 7
-36 14 -69 14 -73 0 -5 -1796 -8 -3991 -8 l-3992 0 7 51 c11 83 45 159 95 212
25 27 54 54 66 60 15 9 928 13 3780 17 2068 3 3769 6 3780 7 11 2 40 -7 65
-18z"/>
<path d="M5633 34033 c-127 -265 -210 -501 -253 -719 -22 -111 -38 -360 -26
-408 l6 -26 1205 0 1205 0 0 90 0 90 -1117 2 -1118 3 3 55 c8 140 68 374 148
577 35 89 154 348 181 393 3 5 -131 82 -153 88 -6 1 -42 -64 -81 -145z"/>
<path d="M8572 22110 l-3834 -3840 3841 0 3841 0 0 3840 c0 2112 -3 3840 -7
3840 -5 0 -1733 -1728 -3841 -3840z m3658 -135 l0 -3525 -120 0 -120 0 0 145
0 145 -95 0 -95 0 0 -145 0 -145 -140 0 -140 0 0 145 0 145 -90 0 -90 0 0
-145 0 -145 -140 0 -140 0 0 145 0 145 -95 0 -95 0 0 -145 0 -145 -140 0 -140
0 0 145 0 145 -90 0 -90 0 0 -145 0 -145 -140 0 -140 0 0 145 0 145 -95 0 -95
0 0 -145 0 -145 -140 0 -140 0 0 145 0 145 -90 0 -90 0 0 -145 0 -145 -140 0
-140 0 0 145 0 145 -95 0 -95 0 0 -145 0 -145 -140 0 -140 0 0 145 0 145 -90
0 -90 0 0 -145 0 -145 -140 0 -140 0 0 145 0 145 -95 0 -95 0 0 -145 0 -145
-135 0 -135 0 0 145 0 145 -95 0 -95 0 0 -145 0 -145 -140 0 -140 0 0 145 0
145 -95 0 -95 0 0 -145 0 -145 -135 0 -135 0 0 145 0 145 -95 0 -95 0 0 -145
0 -145 -140 0 -140 0 0 145 0 145 -95 0 -95 0 0 -145 0 -145 -135 0 -135 0 0
145 0 145 -95 0 -95 0 0 -145 0 -145 -292 0 -293 0 3525 3525 c1939 1939 3526
3525 3527 3525 2 0 3 -1586 3 -3525z"/>
<path d="M9505 21160 l-1530 -1530 1533 0 1532 0 0 1530 c0 842 -1 1530 -3
1530 -1 0 -691 -688 -1532 -1530z m1355 -130 l0 -1210 -1217 0 -1218 0 1210
1210 c665 666 1213 1210 1217 1210 5 0 8 -544 8 -1210z"/>
<path d="M45430 25511 l0 -319 -92 -23 c-343 -84 -727 -260 -1032 -473 l-79
-55 -86 74 c-47 41 -156 135 -241 209 l-155 135 -20 -23 c-11 -13 -218 -252
-460 -531 -242 -278 -440 -510 -440 -515 0 -4 104 -99 232 -209 127 -111 234
-205 237 -210 3 -5 -23 -69 -58 -142 -111 -232 -200 -504 -246 -754 -12 -66
-23 -129 -26 -141 -3 -20 -17 -21 -324 -44 l-320 -23 0 -41 c0 -64 99 -1359
105 -1364 3 -4 265 14 620 41 28 2 31 -2 49 -53 83 -240 191 -472 310 -663
l67 -109 -73 -76 c-39 -43 -140 -148 -222 -235 -83 -87 -152 -161 -154 -166
-3 -9 995 -965 1013 -969 7 -2 113 103 236 233 123 129 227 235 231 235 4 0
31 -14 59 -31 78 -45 211 -111 324 -159 121 -52 396 -143 483 -161 l62 -13 0
-333 0 -333 705 0 705 0 2 332 3 332 55 13 c363 89 739 257 1045 467 65 44 82
52 94 43 9 -7 121 -103 249 -215 129 -112 239 -201 244 -200 12 4 918 1049
918 1059 0 4 -100 94 -222 200 -123 106 -233 202 -246 214 l-23 21 75 155
c118 246 190 462 246 738 16 79 30 145 32 146 2 2 145 13 318 25 173 13 318
26 322 29 10 8 -92 1383 -103 1395 -5 5 -137 -1 -319 -14 -183 -13 -314 -19
-319 -14 -5 5 -21 47 -36 94 -65 201 -189 468 -300 645 -31 48 -54 91 -53 95
2 4 101 110 221 235 l218 228 -23 23 c-13 12 -243 232 -512 488 l-490 467
-145 -153 c-80 -84 -179 -188 -221 -230 l-75 -77 -131 73 c-213 117 -462 216
-714 283 l-105 28 -3 318 -2 317 -705 0 -705 0 0 -319z m1230 -170 l0 -298 63
-12 c336 -65 690 -204 999 -393 l106 -66 207 219 207 218 312 -298 c171 -163
341 -326 378 -362 l67 -64 -209 -217 -210 -218 74 -112 c181 -276 323 -589
401 -880 l18 -67 56 5 c195 18 547 41 552 36 6 -6 80 -952 79 -1013 l0 -25
-302 -23 c-167 -12 -306 -25 -309 -29 -3 -4 -14 -63 -24 -132 -50 -355 -189
-750 -373 -1065 l-30 -51 235 -203 c129 -111 233 -207 231 -212 -5 -13 -670
-779 -677 -779 -5 0 -109 89 -417 356 l-59 52 -114 -84 c-339 -250 -722 -422
-1151 -518 l-105 -23 -3 -317 -2 -316 -525 0 -525 0 0 318 0 317 -109 23
c-306 62 -655 202 -939 375 l-93 57 -127 -132 c-70 -73 -168 -176 -219 -228
l-92 -94 -63 59 c-35 33 -204 195 -375 359 l-313 298 38 43 c20 24 117 126
214 227 l177 185 -92 139 c-155 235 -280 496 -367 772 l-42 133 -72 -6 c-217
-19 -541 -42 -544 -40 -4 3 -82 1038 -79 1041 1 1 135 11 297 23 162 12 300
24 306 26 6 1 16 47 23 102 45 371 178 772 364 1100 l35 62 -216 187 c-119
103 -223 193 -230 199 -11 10 49 85 329 408 l342 395 223 -194 c122 -107 228
-194 233 -194 6 0 55 33 109 74 334 254 779 455 1195 541 l87 18 0 299 0 298
525 0 525 0 0 -299z"/>
<path d="M46140 24613 l0 -90 46 -7 c26 -3 71 -6 100 -6 29 0 104 -7 166 -16
721 -99 1350 -491 1748 -1091 242 -364 378 -779 405 -1240 l7 -113 89 0 89 0
0 58 c0 185 -45 472 -105 683 -213 741 -754 1357 -1473 1679 -289 129 -617
207 -949 226 l-123 7 0 -90z"/>
<path d="M45977 24089 c-665 -49 -1266 -428 -1615 -1019 -178 -302 -272 -655
-272 -1027 0 -728 376 -1388 1007 -1763 210 -125 435 -208 698 -256 118 -22
443 -30 572 -15 518 61 1003 317 1325 700 256 304 413 648 474 1036 23 150 23
450 0 600 -107 677 -514 1236 -1121 1539 -321 159 -699 232 -1068 205z m361
-190 c723 -79 1337 -574 1567 -1261 73 -219 100 -414 92 -657 -10 -297 -75
-547 -209 -800 -558 -1056 -1936 -1327 -2853 -559 -646 541 -845 1465 -480
2226 344 715 1100 1137 1883 1051z"/>
<path d="M46002 23110 c-467 -66 -832 -411 -918 -866 -22 -120 -20 -302 5
-420 66 -314 281 -593 566 -734 303 -150 636 -155 932 -15 123 58 192 105 286
194 230 219 349 513 334 821 -7 137 -23 214 -70 338 -56 150 -117 242 -247
372 -159 159 -301 239 -511 290 -97 23 -284 33 -377 20z m305 -195 c280 -59
502 -230 624 -480 73 -149 92 -246 86 -420 -6 -166 -20 -225 -87 -360 -114
-230 -315 -396 -565 -467 -67 -19 -104 -23 -225 -23 -178 0 -241 15 -398 92
-96 47 -127 68 -204 141 -133 127 -203 239 -255 409 -24 79 -26 104 -26 238 0
134 2 159 26 238 100 326 351 562 672 630 91 20 266 21 352 2z"/>
<path d="M33556 25801 c-94 -38 -138 -78 -187 -171 -24 -44 -24 -50 -29 -389
l-5 -345 -64 -37 c-94 -55 -191 -138 -248 -213 -134 -179 -188 -379 -163 -600
l11 -101 -202 -665 c-111 -366 -203 -667 -205 -669 -6 -7 -229 107 -338 173
-136 83 -243 160 -372 269 l-101 85 -61 -68 -62 -68 68 -61 c178 -157 407
-310 652 -434 85 -43 156 -79 157 -80 1 -1 -107 -359 -240 -795 l-242 -793
-57 -23 c-128 -52 -245 -162 -307 -291 -41 -85 -56 -156 -55 -265 1 -111 32
-216 89 -306 19 -30 35 -60 35 -68 0 -7 -29 -110 -65 -228 l-65 -214 2 -750 3
-749 302 660 c245 538 316 701 378 882 71 204 79 222 103 228 101 25 261 161
318 270 57 108 69 159 69 285 0 124 -18 197 -70 289 -14 23 -25 48 -25 53 0 8
548 1593 554 1605 1 1 48 -5 106 -12 57 -8 157 -17 222 -21 l118 -7 0 -123 0
-124 90 0 90 0 0 124 0 124 83 7 c95 7 312 33 342 41 19 5 78 -160 785 -2179
421 -1202 766 -2184 766 -2183 1 0 9 325 19 721 l17 720 -441 1558 c-243 856
-441 1562 -441 1568 0 6 29 24 65 40 164 74 394 215 563 343 97 74 215 173
220 186 3 9 -107 130 -119 130 -6 0 -43 -29 -84 -65 -104 -90 -250 -197 -371
-271 -101 -62 -323 -178 -329 -172 -2 2 -86 298 -188 658 -166 587 -185 660
-177 695 78 344 -91 710 -408 889 l-57 32 -5 344 c-5 335 -6 346 -28 392 -31
63 -90 121 -154 154 -72 37 -190 44 -262 15z m193 -190 c14 -9 34 -30 45 -45
20 -26 21 -43 24 -323 l3 -295 -22 7 c-27 9 -230 9 -258 0 l-21 -6 0 281 c0
302 3 322 52 368 48 44 127 50 177 13z m86 -858 c329 -82 531 -430 445 -768
-54 -211 -235 -393 -450 -451 -85 -23 -233 -23 -320 0 -218 59 -403 248 -454
466 -33 141 -11 315 56 443 42 81 173 212 253 254 153 79 304 97 470 56z
m-730 -1197 c54 -53 135 -111 202 -145 l42 -21 -38 -107 c-21 -60 -96 -274
-166 -478 -71 -203 -130 -372 -132 -374 -8 -10 -358 93 -368 109 -3 5 72 267
167 580 l173 571 35 -43 c19 -24 57 -65 85 -92z m1399 -446 c87 -309 157 -562
155 -564 -8 -8 -264 -87 -299 -92 l-35 -6 -163 464 c-89 255 -162 468 -162
473 0 6 24 22 53 38 82 43 185 125 235 188 26 32 49 58 52 58 3 1 77 -251 164
-559z m-523 -238 c89 -254 160 -464 158 -466 -6 -6 -247 -35 -314 -38 l-60 -2
-3 242 -2 242 -90 0 -90 0 0 -246 0 -246 -87 6 c-141 10 -293 28 -293 35 0 3
73 215 162 471 l162 465 147 0 148 0 162 -463z m1173 -2059 l437 -1542 -7
-192 c-4 -105 -11 -185 -15 -177 -12 22 -1180 3361 -1176 3364 1 2 54 19 117
38 63 19 133 41 155 49 22 8 43 12 46 8 4 -3 203 -700 443 -1548z m-2429 1502
c61 -18 136 -39 168 -46 45 -10 57 -16 54 -28 -13 -47 -509 -1467 -515 -1473
-4 -4 -38 8 -75 27 -37 19 -104 42 -147 51 -44 10 -80 21 -80 26 0 8 396 1314
437 1441 12 38 19 47 32 42 9 -4 66 -21 126 -40z m-460 -1681 c305 -150 303
-582 -2 -727 -63 -30 -76 -32 -173 -32 -93 0 -111 3 -163 27 -80 38 -161 117
-200 197 -29 61 -32 73 -32 171 0 98 2 110 32 170 50 103 140 182 246 216 27
9 76 13 137 11 81 -3 103 -7 155 -33z m-413 -901 c36 -17 174 -53 201 -53 15
0 -141 -401 -241 -620 l-122 -265 0 321 0 322 45 148 c55 181 53 177 63 172 4
-2 28 -14 54 -25z"/>
<path d="M56648 25093 l-3 -388 -92 -7 c-342 -24 -618 -266 -687 -603 l-13
-60 -391 -3 -392 -2 0 -90 0 -90 390 0 390 0 0 -225 0 -225 -390 0 -390 0 0
-90 0 -90 390 0 390 0 0 -225 0 -225 -390 0 -390 0 0 -90 0 -90 390 0 390 0 0
-225 0 -225 -390 0 -390 0 0 -95 0 -95 390 0 390 0 0 -220 0 -220 -390 0 -390
0 0 -95 0 -95 390 0 390 0 0 -225 0 -225 -390 0 -390 0 0 -90 0 -90 390 0 390
0 0 -225 0 -225 -390 0 -390 0 0 -90 0 -90 390 0 c304 0 391 -3 394 -12 2 -7
11 -44 20 -83 50 -221 231 -432 445 -519 81 -33 193 -56 271 -56 l60 0 0 -390
0 -390 90 0 90 0 0 390 0 390 225 0 225 0 0 -390 0 -390 90 0 90 0 2 388 3
387 223 3 222 2 0 -390 0 -390 95 0 95 0 0 390 0 390 223 -2 222 -3 3 -387 2
-388 90 0 90 0 0 390 0 390 225 0 225 0 0 -390 0 -390 90 0 90 0 0 390 0 390
225 0 225 0 0 -390 0 -390 90 0 90 0 2 388 3 387 223 3 222 2 0 -390 0 -390
95 0 95 0 0 389 0 388 88 6 c156 11 289 60 411 152 130 99 243 276 277 435
l17 80 389 0 388 0 0 90 0 90 -387 2 -388 3 -3 223 -2 222 390 0 390 0 0 90 0
90 -387 2 -388 3 -3 223 -2 222 390 0 390 0 0 95 0 95 -390 0 -390 0 0 220 0
220 390 0 390 0 0 95 0 95 -390 0 -390 0 2 223 3 222 388 3 387 2 0 90 0 90
-390 0 -390 0 2 223 3 222 388 3 387 2 0 90 0 90 -387 2 -388 3 -3 223 -2 222
390 0 390 0 0 90 0 90 -388 0 -387 0 -21 88 c-54 226 -199 406 -409 507 -103
49 -205 75 -299 75 l-66 0 0 390 0 390 -95 0 -95 0 0 -390 0 -390 -222 2 -223
3 -3 388 -2 387 -90 0 -90 0 0 -390 0 -390 -222 2 -223 3 -3 388 -2 387 -90 0
-90 0 -2 -387 -3 -388 -222 -3 -223 -2 0 390 0 390 -90 0 -90 0 -2 -387 -3
-388 -222 -3 -223 -2 0 390 0 390 -95 0 -95 0 0 -390 0 -390 -222 2 -223 3 -3
388 -2 387 -90 0 -90 0 0 -390 0 -390 -222 2 -223 3 -3 388 -2 387 -90 0 -90
0 -2 -387z m4110 -583 c209 -34 391 -192 454 -392 l23 -73 0 -2000 0 -2000
-24 -73 c-60 -182 -203 -319 -396 -379 -57 -17 -150 -18 -2170 -18 -1685 0
-2121 3 -2165 13 -201 47 -372 213 -425 412 -22 82 -22 4007 0 4090 54 205
227 370 435 414 54 12 400 15 2135 15 1371 1 2091 -3 2133 -9z"/>
<path d="M56518 24155 c-70 -23 -152 -102 -178 -173 -52 -137 8 -297 137 -362
34 -17 69 -26 121 -28 66 -4 79 -1 137 27 74 37 117 84 145 159 84 223 -134
450 -362 377z m135 -186 c36 -18 57 -52 57 -91 0 -89 -110 -135 -174 -72 -20
21 -26 36 -26 71 0 79 75 127 143 92z"/>
<path d="M60660 24161 c-130 -40 -220 -157 -220 -287 0 -56 31 -139 70 -186
17 -20 58 -50 92 -67 150 -76 324 -14 393 140 24 54 27 71 23 133 -6 89 -30
138 -98 200 -73 65 -177 92 -260 67z m141 -210 c40 -40 41 -106 3 -145 -64
-63 -174 -17 -174 72 1 90 108 136 171 73z"/>
<path d="M57290 23699 c-131 -25 -280 -141 -340 -262 -63 -128 -61 -85 -58
-1425 3 -1150 4 -1220 22 -1272 28 -86 70 -151 138 -217 66 -63 96 -82 187
-117 l56 -21 1300 -3 c923 -2 1319 1 1367 8 198 33 366 194 407 388 8 37 11
421 11 1275 0 1027 -3 1231 -15 1276 -49 185 -201 332 -383 370 -65 13 -2622
14 -2692 0z m2728 -209 c71 -36 115 -82 151 -160 l26 -55 0 -1230 0 -1230 -27
-57 c-35 -75 -104 -141 -174 -168 -55 -20 -61 -20 -1372 -18 l-1317 3 -50 27
c-68 35 -128 102 -154 172 l-21 58 2 1231 3 1232 27 51 c33 63 114 137 171
157 36 13 217 16 1358 16 l1316 1 61 -30z"/>
<path d="M58378 23149 l-3 -111 -63 -20 c-35 -11 -65 -18 -66 -16 -53 72 -128
168 -132 168 -2 0 -96 -69 -209 -154 l-205 -153 66 -87 c64 -85 65 -88 50
-112 -9 -13 -23 -24 -30 -24 -8 0 -56 16 -107 35 -50 20 -93 34 -94 33 -1 -2
-41 -111 -89 -242 -67 -185 -84 -241 -74 -247 7 -5 53 -23 101 -40 79 -28 88
-34 83 -53 -3 -12 -6 -35 -6 -52 0 -31 -1 -32 -90 -55 -49 -12 -95 -26 -101
-30 -8 -4 8 -81 52 -250 34 -134 64 -246 66 -248 1 -2 47 8 100 22 78 21 99
24 105 13 4 -7 23 -36 43 -65 19 -29 35 -55 35 -58 0 -3 -23 -35 -52 -72 -28
-36 -56 -71 -60 -77 -6 -8 56 -62 188 -164 108 -84 202 -153 209 -154 7 0 38
32 70 72 31 40 62 71 69 69 6 -2 41 -14 79 -26 l67 -23 0 -99 0 -99 260 0 259
0 3 100 3 101 67 23 66 23 58 -78 c32 -44 60 -79 63 -79 4 0 385 283 405 301
5 4 -18 44 -52 90 l-61 81 21 29 c12 16 27 29 32 28 6 0 49 -15 96 -33 47 -19
86 -33 87 -32 2 2 43 110 91 242 64 171 86 241 77 246 -7 4 -51 21 -98 39
l-87 31 0 53 0 53 78 20 c42 12 90 24 105 28 20 4 26 11 22 23 -2 9 -31 119
-64 245 -33 125 -62 231 -65 234 -3 3 -51 -7 -107 -22 -56 -15 -102 -26 -103
-24 0 2 -20 30 -42 63 l-42 61 64 84 c36 46 63 87 62 91 -6 14 -393 309 -403
306 -5 -2 -38 -40 -72 -84 l-63 -81 -70 22 -70 21 0 113 0 112 -260 0 -259 0
-3 -111z m334 -166 l3 -98 80 -16 c84 -18 183 -52 253 -88 23 -11 43 -21 45
-21 2 0 27 32 56 70 30 39 57 70 61 70 9 0 110 -80 110 -87 0 -2 -25 -36 -55
-75 l-55 -70 48 -53 c58 -63 108 -137 151 -222 l31 -62 85 23 c47 13 87 20 89
17 7 -10 37 -133 34 -135 -3 -3 -60 -19 -124 -35 l-41 -11 -1 -142 c-1 -79 -3
-163 -4 -188 l-3 -44 73 -27 c41 -15 75 -29 77 -31 2 -2 -8 -33 -22 -70 l-25
-67 -81 30 c-63 23 -82 27 -89 17 -4 -7 -25 -42 -45 -77 -21 -35 -64 -91 -95
-126 l-58 -63 50 -65 c28 -37 50 -68 50 -70 0 -5 -107 -87 -114 -87 -2 0 -26
29 -52 65 -26 36 -49 65 -51 65 -2 0 -34 -15 -71 -34 -82 -41 -148 -63 -238
-79 l-69 -13 -3 -82 -3 -82 -74 0 -74 0 -3 82 -3 82 -85 18 c-96 20 -171 48
-247 90 l-51 28 -52 -65 c-28 -36 -54 -65 -56 -65 -11 0 -109 84 -107 91 2 5
24 35 49 68 l45 59 -63 79 c-36 43 -86 122 -113 174 l-49 96 -74 -19 c-41 -10
-79 -17 -85 -15 -6 2 -19 33 -28 69 l-16 66 46 12 c25 6 63 15 84 21 l37 10 0
117 c1 64 7 147 14 184 l13 67 -84 31 c-46 17 -83 35 -83 40 0 7 40 119 45
128 1 1 39 -11 84 -28 45 -16 84 -30 86 -30 2 0 24 30 48 68 24 37 70 97 101
134 l58 67 -48 63 c-26 35 -51 68 -55 74 -8 9 72 78 104 89 7 3 36 -29 66 -70
l54 -74 61 31 c81 41 146 63 234 78 l72 13 0 92 c0 50 3 95 7 98 3 4 37 7 74
7 l68 0 3 -97z"/>
<path d="M58462 22761 c-40 -10 -112 -38 -160 -61 -72 -36 -103 -59 -182 -139
-79 -79 -103 -111 -137 -181 -52 -106 -72 -180 -80 -295 -14 -215 68 -418 232
-573 83 -79 165 -128 280 -168 72 -25 94 -28 215 -29 115 0 146 4 210 23 263
83 446 273 511 532 32 124 24 292 -18 413 -42 119 -85 188 -173 277 -87 88
-181 147 -295 186 -108 36 -293 43 -403 15z m283 -176 c199 -42 353 -182 421
-385 26 -76 26 -234 0 -310 -34 -100 -68 -154 -145 -231 -190 -190 -460 -218
-688 -70 -277 179 -327 579 -103 824 136 149 324 212 515 172z"/>
<path d="M56482 20474 c-174 -86 -216 -308 -86 -453 137 -152 375 -120 472 64
22 42 27 63 27 130 0 70 -4 87 -30 134 -57 102 -142 151 -265 151 -51 0 -78
-6 -118 -26z m201 -194 c90 -100 -53 -230 -149 -135 -18 18 -24 35 -24 67 1
49 14 71 56 93 39 21 83 12 117 -25z"/>
<path d="M60624 20484 c-57 -20 -114 -72 -149 -135 -26 -47 -30 -64 -30 -134
0 -67 5 -88 27 -130 54 -103 145 -158 258 -159 247 -1 382 293 219 478 -58 66
-126 96 -213 95 -39 0 -90 -7 -112 -15z m144 -175 c63 -22 85 -117 38 -164
-92 -91 -234 28 -155 129 34 43 66 53 117 35z"/>
<path d="M17709 25292 c-135 -36 -239 -124 -306 -260 l-38 -76 0 -2215 0
-2216 23 -58 c51 -126 159 -230 287 -279 l60 -23 1308 -3 1307 -2 0 -429 0
-429 -227 -4 c-255 -4 -283 -10 -390 -84 -94 -65 -173 -217 -173 -334 0 -42 4
-52 31 -74 l31 -26 1509 0 c1653 0 1553 -4 1578 58 31 74 -41 266 -129 345
-108 97 -182 117 -447 117 l-203 0 0 430 0 430 1273 0 c1381 0 1347 -1 1458
56 29 14 81 54 115 88 71 71 110 141 130 235 21 102 21 4307 -1 4399 -41 175
-175 311 -350 357 -53 13 -433 15 -3420 14 -3143 0 -3364 -1 -3426 -17z m6873
-204 c25 -16 62 -47 82 -69 72 -84 66 103 64 -2299 -3 -2135 -3 -2166 -23
-2205 -25 -51 -89 -115 -140 -140 -40 -20 -72 -20 -3430 -20 l-3390 0 -40 22
c-54 29 -109 86 -137 142 l-23 46 0 2170 0 2170 24 49 c31 63 82 113 145 142
l51 24 3385 -3 3385 -2 47 -27z m-2842 -5358 l0 -430 -605 0 -605 0 0 430 0
430 605 0 605 0 0 -430z m650 -639 c25 -13 56 -33 68 -45 22 -19 52 -67 52
-81 0 -3 -616 -5 -1370 -5 -1537 0 -1407 -8 -1327 76 29 31 60 51 97 65 53 18
98 18 1245 16 l1190 -2 45 -24z"/>
<path d="M17823 24836 l-28 -24 0 -2077 0 -2077 28 -24 28 -24 3284 0 3283 0
31 26 31 26 0 2072 0 2072 -28 27 -28 27 -3286 0 -3287 0 -28 -24z m6475
-2098 l-3 -1943 -3157 -3 -3158 -2 0 1945 0 1945 3160 0 3160 0 -2 -1942z"/>
<path d="M20820 24190 c0 -124 -2 -150 -14 -150 -8 0 -55 -13 -104 -30 -50
-16 -92 -30 -95 -30 -2 0 -43 52 -91 115 l-86 115 -248 -186 c-136 -102 -249
-189 -250 -195 -2 -5 33 -59 78 -119 l82 -110 -26 -38 c-58 -82 -41 -78 -163
-34 -59 22 -120 45 -134 50 l-27 11 -92 -252 c-51 -139 -101 -273 -111 -298
l-18 -46 117 -43 c64 -24 124 -46 132 -51 12 -6 14 -24 10 -100 l-5 -92 -130
-34 c-71 -19 -131 -36 -134 -38 -2 -3 31 -140 75 -305 60 -230 82 -300 94
-300 8 0 67 14 130 30 106 28 116 29 125 14 6 -9 38 -59 72 -110 l61 -93 -81
-106 c-47 -62 -77 -109 -71 -113 6 -4 117 -89 246 -189 130 -101 241 -183 245
-183 5 0 40 40 77 90 38 49 73 94 80 99 7 6 32 1 71 -15 33 -14 88 -32 123
-41 l62 -17 0 -133 0 -133 315 0 314 0 3 131 3 131 115 38 c63 22 116 39 117
40 0 0 36 -47 79 -105 49 -65 82 -101 88 -96 6 4 120 90 254 190 160 120 240
186 235 194 -3 7 -39 55 -79 107 l-71 96 39 54 c21 30 45 56 52 58 7 1 62 -15
122 -37 60 -23 114 -41 119 -41 13 0 227 582 218 591 -5 3 -63 26 -131 50
l-124 44 6 35 c3 19 6 62 6 95 l0 60 135 35 c106 27 134 38 130 50 -2 8 -38
145 -80 304 -41 160 -76 291 -78 292 -1 1 -60 -13 -131 -32 -71 -19 -133 -33
-137 -32 -4 2 -39 48 -77 103 l-69 101 83 104 c46 58 83 110 84 117 0 10 -469
380 -490 386 -4 1 -46 -49 -94 -110 -48 -62 -88 -113 -89 -113 -1 1 -54 18
-117 40 l-115 38 -3 146 -3 146 -314 0 -315 0 0 -150z m450 -163 l0 -134 68
-12 c107 -19 199 -49 306 -99 95 -45 99 -45 112 -27 8 11 44 57 80 103 l65 83
62 -49 c34 -26 81 -63 105 -81 l42 -33 -79 -101 -79 -102 54 -60 c66 -73 150
-197 194 -285 18 -36 33 -66 34 -67 1 -1 55 12 119 29 65 17 120 29 122 26 6
-5 65 -228 65 -243 0 -6 -52 -24 -116 -40 l-117 -30 6 -100 c6 -89 -3 -235
-19 -321 l-6 -31 107 -38 c59 -21 109 -43 111 -50 3 -6 -15 -63 -39 -126 -30
-78 -48 -113 -58 -111 -8 2 -59 19 -113 39 -58 21 -101 32 -103 26 -11 -33
-111 -179 -167 -245 -36 -43 -66 -80 -66 -83 0 -3 29 -44 65 -92 36 -47 65
-89 65 -92 0 -4 -33 -31 -72 -60 -40 -30 -87 -65 -104 -78 l-32 -24 -67 91
c-37 49 -71 90 -76 90 -5 0 -41 -16 -80 -35 -88 -45 -222 -89 -316 -106 l-73
-12 0 -114 0 -113 -135 0 -135 0 0 114 0 114 -67 12 c-94 16 -265 74 -341 116
-34 18 -66 34 -71 34 -5 0 -39 -40 -77 -90 -42 -55 -72 -86 -79 -81 -5 5 -49
38 -97 75 -48 37 -90 71 -93 76 -4 6 23 48 59 94 36 46 66 89 66 94 0 6 -23
37 -51 69 -70 80 -132 176 -179 277 l-40 85 -112 -30 c-61 -17 -114 -26 -119
-22 -7 7 -70 246 -66 249 1 0 53 14 116 31 l113 29 -1 125 c-1 112 3 157 24
285 l7 41 -103 37 c-57 20 -110 40 -116 44 -9 6 -1 38 31 126 24 65 46 119 49
122 2 2 52 -14 111 -36 58 -22 112 -40 119 -40 7 0 21 17 32 37 30 56 102 151
163 215 30 32 52 63 49 70 -3 7 -37 55 -76 107 l-70 94 104 78 c57 44 106 79
108 79 1 0 36 -45 77 -100 41 -55 77 -100 81 -100 3 0 40 15 81 34 93 42 215
81 302 97 l66 11 0 127 c0 70 3 131 7 134 3 4 64 7 135 7 l128 0 0 -133z"/>
<path d="M20978 23680 c-253 -46 -490 -196 -628 -400 -329 -485 -157 -1146
365 -1400 130 -64 231 -90 375 -97 275 -13 525 82 716 272 128 127 206 259
256 431 20 69 23 102 23 249 0 147 -3 180 -23 249 -97 335 -349 587 -677 676
-89 25 -321 36 -407 20z m294 -184 c164 -32 292 -99 408 -216 211 -210 283
-505 191 -780 -38 -113 -71 -172 -144 -261 -204 -246 -543 -338 -848 -230
-115 41 -184 86 -284 186 -102 102 -145 168 -186 289 -73 212 -53 435 56 633
56 101 206 246 310 300 163 84 331 111 497 79z"/>
<path d="M18250 22080 l0 -1050 940 0 940 0 0 90 0 90 -847 2 -848 3 -3 958
-2 957 -90 0 -90 0 0 -1050z"/>
<path d="M6340 13319 c-156 -25 -304 -150 -364 -307 l-21 -57 -3 -3380 c-1
-2322 1 -3396 8 -3431 35 -167 172 -316 332 -358 58 -16 246 -17 2374 -14
l2310 3 79 39 c104 51 170 117 221 221 l39 79 3 3410 2 3411 -20 65 c-54 168
-200 291 -380 321 -72 12 -4506 10 -4580 -2z m4638 -210 c65 -32 99 -66 135
-133 l22 -41 0 -3390 0 -3390 -23 -42 c-28 -54 -81 -107 -135 -135 l-42 -23
-2280 -3 c-2556 -2 -2331 -9 -2423 73 -30 27 -59 66 -73 97 l-24 53 0 3365 c0
3286 0 3366 19 3414 31 80 107 153 186 177 14 4 1049 8 2301 8 l2276 1 61 -31z"/>
<path d="M6540 11900 l0 -540 2098 2 2097 3 3 538 2 537 -2100 0 -2100 0 0
-540z m4010 0 l0 -350 -1915 0 -1915 0 0 350 0 350 1915 0 1915 0 0 -350z"/>
<path d="M6540 10775 l0 -255 2100 0 2100 0 -2 253 -3 252 -2097 3 -2098 2 0
-255z m4010 -5 l0 -70 -1912 2 -1913 3 -3 68 -3 67 1916 0 1915 0 0 -70z"/>
<path d="M6940 9620 l0 -460 465 0 465 0 0 460 0 460 -465 0 -465 0 0 -460z
m740 0 l0 -280 -275 0 -275 0 0 280 0 280 275 0 275 0 0 -280z"/>
<path d="M8170 9620 l0 -460 465 0 465 0 0 460 0 460 -465 0 -465 0 0 -460z
m750 0 l0 -280 -280 0 -280 0 0 280 0 280 280 0 280 0 0 -280z"/>
<path d="M9410 9620 l0 -460 460 0 460 0 0 460 0 460 -460 0 -460 0 0 -460z
m740 0 l0 -280 -280 0 -280 0 0 280 0 280 280 0 280 0 0 -280z"/>
<path d="M6940 8365 l0 -465 465 0 465 0 0 465 0 465 -465 0 -465 0 0 -465z
m740 5 l0 -280 -275 0 -275 0 0 280 0 280 275 0 275 0 0 -280z"/>
<path d="M8172 8368 l3 -463 463 -3 462 -2 0 465 0 465 -465 0 -465 0 2 -462z
m746 0 l2 -278 -280 0 -280 0 0 280 0 280 278 -2 277 -3 3 -277z"/>
<path d="M9410 8365 l0 -465 460 0 460 0 0 465 0 465 -460 0 -460 0 0 -465z
m740 5 l0 -280 -280 0 -280 0 0 280 0 280 280 0 280 0 0 -280z"/>
<path d="M10658 7723 l-3 -1088 -23 -51 c-29 -64 -92 -126 -157 -156 l-50 -23
-662 -3 -663 -3 0 -90 0 -90 683 3 c676 3 683 3 740 25 130 50 241 160 290
291 l22 57 3 1108 2 1107 -90 0 -90 0 -2 -1087z"/>
<path d="M6940 7115 l0 -465 465 0 465 0 0 465 0 465 -465 0 -465 0 0 -465z
m740 0 l0 -275 -275 0 -275 0 0 275 0 275 275 0 275 0 0 -275z"/>
<path d="M8172 7118 l3 -463 463 -3 462 -2 0 465 0 465 -465 0 -465 0 2 -462z
m748 -3 l0 -275 -280 0 -280 0 0 275 0 275 280 0 280 0 0 -275z"/>
<path d="M9410 7115 l0 -465 460 0 460 0 0 465 0 465 -460 0 -460 0 0 -465z
m740 0 l0 -275 -280 0 -280 0 0 275 0 275 280 0 280 0 0 -275z"/>
<path d="M31821 13314 c-36 -7 -90 -26 -120 -41 -68 -33 -176 -138 -214 -210
-60 -113 -57 116 -57 -3514 0 -2346 3 -3343 11 -3385 27 -149 126 -277 267
-347 l85 -42 1821 -3 c1798 -2 1822 -2 1887 18 157 47 281 177 326 340 17 62
18 229 18 3420 l0 3355 -22 71 c-57 180 -211 314 -393 343 -43 7 -649 11
-1805 10 -1450 0 -1751 -3 -1804 -15z m3660 -202 c63 -31 117 -86 148 -152 24
-51 26 -66 29 -222 l4 -168 -2021 0 -2021 0 0 168 c0 154 2 171 24 217 40 87
97 140 185 171 29 11 379 13 1821 11 l1785 -2 46 -23z m179 -3567 l0 -2835
-2025 0 -2025 0 0 2835 0 2835 2025 0 2025 0 0 -2835z m-2 -3192 c-3 -146 -6
-174 -24 -214 -30 -64 -88 -125 -148 -157 l-51 -27 -1775 -3 c-1974 -3 -1834
-7 -1927 66 -27 22 -61 62 -78 93 -30 53 -30 56 -33 232 l-4 177 2022 0 2022
0 -4 -167z"/>
<path d="M32900 12840 l0 -90 515 0 515 0 0 90 0 90 -515 0 -515 0 0 -90z"/>
<path d="M34060 12840 l0 -90 155 0 155 0 0 90 0 90 -155 0 -155 0 0 -90z"/>
<path d="M33340 10755 c0 -97 -2 -115 -15 -115 -28 0 -169 -59 -247 -103 l-76
-44 -86 73 -85 74 -195 -225 -196 -224 83 -72 c45 -40 84 -73 85 -75 2 -1 -8
-33 -23 -69 -14 -37 -34 -98 -44 -136 -10 -38 -20 -71 -22 -74 -3 -2 -54 -9
-113 -14 -59 -5 -109 -11 -110 -13 -5 -6 41 -578 46 -584 3 -3 54 -1 114 4 60
5 110 7 112 3 1 -4 24 -50 50 -103 l47 -96 -77 -83 c-43 -46 -77 -87 -75 -90
1 -4 97 -97 212 -207 l210 -201 85 84 85 83 62 -28 c34 -16 87 -37 118 -46
l55 -18 0 -118 0 -118 295 0 294 0 3 117 3 117 95 36 c52 20 127 53 166 75
l71 39 85 -74 c47 -40 88 -72 92 -72 3 1 83 91 178 199 94 109 180 208 192
221 l21 23 -60 52 c-33 29 -72 63 -88 77 l-28 25 21 50 c12 28 33 88 46 134
13 47 26 87 29 89 2 2 52 8 110 12 59 5 109 11 112 13 2 3 -5 124 -17 271 -11
147 -20 278 -20 292 l0 25 -120 -7 c-102 -6 -120 -5 -120 8 0 8 -20 55 -44
105 l-44 90 74 74 c41 40 74 79 74 85 0 6 -95 103 -212 215 l-212 203 -76 -83
-77 -83 -34 18 c-19 9 -74 32 -124 50 l-90 32 -3 111 -3 111 -294 0 -295 0 0
-115z m412 -161 l3 -97 98 -23 c106 -26 210 -70 300 -128 l58 -36 60 65 c34
36 67 65 73 65 6 0 45 -34 86 -75 l74 -75 -62 -63 c-34 -34 -62 -66 -62 -71 0
-5 23 -45 51 -88 56 -88 98 -181 124 -276 l18 -63 97 6 97 7 7 -107 c4 -59 5
-109 3 -112 -3 -2 -46 -7 -96 -10 -83 -5 -92 -8 -95 -27 -3 -12 -10 -54 -16
-95 -16 -99 -50 -195 -104 -296 l-44 -83 74 -62 c41 -35 74 -66 74 -69 0 -3
-34 -42 -74 -86 l-74 -80 -70 63 c-39 34 -73 62 -77 62 -3 0 -29 -18 -58 -39
-115 -86 -249 -148 -384 -177 l-83 -17 0 -99 0 -98 -110 0 -109 0 -3 97 -3 96
-90 22 c-111 28 -221 73 -300 124 l-60 39 -72 -71 -71 -70 -81 73 c-45 40 -81
76 -81 79 0 4 29 36 65 71 36 35 65 68 65 73 0 4 -18 35 -40 67 -55 81 -114
204 -135 285 l-19 67 -97 -7 -97 -6 -6 53 c-3 29 -8 78 -11 109 l-5 56 38 7
c20 3 60 6 87 6 28 0 55 4 61 8 5 4 16 45 23 91 17 115 44 200 99 310 l46 94
-69 62 c-79 71 -80 54 14 163 29 34 57 62 62 62 4 0 38 -26 76 -59 l68 -58 50
39 c121 94 250 155 400 187 l80 18 3 96 3 97 109 0 109 0 3 -96z"/>
<path d="M33533 9955 c-81 -22 -132 -52 -193 -114 -121 -120 -155 -283 -96
-449 64 -177 270 -296 457 -263 169 29 311 161 349 323 69 303 -219 583 -517
503z m202 -199 c190 -88 176 -361 -22 -432 -177 -63 -358 115 -299 293 19 56
81 123 136 147 53 23 127 20 185 -8z"/>
<path d="M31960 7830 l0 -860 840 0 840 0 0 90 0 90 -750 0 -750 0 0 770 0
770 -90 0 -90 0 0 -860z"/>
<path d="M45540 12955 c0 -292 -3 -376 -12 -379 -7 -2 -73 -18 -147 -35 -106
-25 -136 -29 -143 -19 -4 7 -83 154 -174 326 -91 171 -170 312 -175 312 -17 0
-1049 -553 -1049 -562 0 -6 73 -147 163 -316 89 -168 163 -308 165 -312 1 -3
-27 -30 -63 -58 -36 -29 -103 -86 -149 -127 -46 -41 -87 -75 -90 -75 -4 0
-138 84 -298 186 -239 152 -293 183 -303 172 -18 -18 -635 -988 -635 -996 1
-4 124 -85 275 -181 151 -95 275 -177 275 -182 0 -5 -15 -46 -34 -91 -27 -65
-83 -229 -122 -355 -4 -16 -9 -16 -359 -2 -152 5 -279 8 -282 6 -3 -4 -42
-1055 -43 -1163 l0 -32 138 -6 c75 -3 208 -8 294 -12 l157 -6 6 -42 c24 -157
50 -295 71 -380 14 -54 24 -99 22 -101 -2 -1 -112 -61 -245 -134 -134 -73
-243 -137 -243 -141 0 -9 557 -1029 569 -1042 3 -4 69 28 146 70 77 43 179 99
226 125 l87 47 90 -108 c49 -59 135 -153 190 -209 l101 -103 -124 -211 c-69
-116 -125 -214 -125 -218 0 -10 1021 -612 1029 -606 5 2 59 91 121 197 63 106
115 195 117 197 2 3 67 -17 146 -42 78 -26 205 -62 282 -80 l140 -34 3 -231 2
-232 600 0 600 0 0 233 0 233 88 18 c48 10 141 33 206 52 66 19 123 31 127 27
4 -5 53 -95 109 -200 56 -106 106 -195 111 -199 6 -3 1027 529 1058 552 2 2
-49 103 -114 224 l-117 221 43 36 c24 20 106 98 182 175 85 85 143 136 150
132 7 -4 103 -66 215 -137 112 -71 205 -128 207 -126 2 2 147 230 323 506 229
358 317 504 309 511 -7 5 -106 69 -222 142 -115 73 -215 138 -222 144 -9 8 -3
40 26 136 38 123 91 341 91 375 0 16 14 17 193 11 105 -4 238 -9 295 -12 l102
-6 1 104 c0 56 8 326 17 600 l17 496 -90 6 c-49 3 -192 9 -317 12 l-226 7 -22
96 c-12 53 -42 161 -67 240 -24 79 -43 144 -41 146 2 1 129 71 283 155 154 84
281 154 283 156 3 2 -563 1040 -573 1052 -2 2 -139 -71 -305 -163 -166 -91
-306 -165 -310 -163 -4 2 -80 74 -170 160 l-162 158 181 306 c100 169 180 308
179 309 -14 11 -1023 605 -1028 605 -4 0 -87 -134 -183 -298 -97 -163 -182
-306 -190 -316 -12 -17 -18 -16 -121 14 -60 17 -154 41 -210 54 l-101 23 -3
376 -2 377 -600 0 -600 0 0 -375z m1020 -174 l0 -359 98 -17 c151 -27 320 -71
462 -119 l129 -44 172 292 c94 160 177 297 183 304 10 10 85 -30 369 -199 346
-205 356 -211 343 -232 -47 -74 -336 -569 -335 -575 0 -4 34 -34 76 -67 85
-67 311 -287 394 -383 l54 -62 290 159 c160 88 293 156 297 153 4 -4 95 -167
202 -362 170 -308 193 -357 180 -367 -9 -6 -132 -75 -275 -153 -142 -78 -259
-144 -259 -147 0 -3 20 -58 44 -123 57 -151 102 -310 136 -480 l27 -135 299
-10 299 -10 -3 -100 c-6 -244 -24 -730 -26 -733 -2 -1 -126 2 -277 7 -150 6
-274 9 -276 7 -2 -2 -13 -57 -24 -122 -32 -190 -79 -364 -148 -553 -17 -47
-31 -90 -31 -97 0 -7 97 -74 215 -149 118 -76 215 -140 215 -143 0 -3 -100
-162 -222 -354 l-221 -348 -26 17 c-157 103 -384 244 -390 241 -4 -2 -36 -37
-71 -78 -93 -109 -271 -284 -380 -375 -52 -43 -96 -82 -98 -86 -2 -5 44 -99
103 -210 59 -110 105 -203 102 -205 -8 -9 -718 -384 -726 -384 -4 0 -51 82
-104 183 -54 100 -101 188 -105 194 -6 10 -32 4 -107 -23 -119 -42 -327 -97
-450 -119 -49 -9 -100 -18 -112 -21 l-23 -4 0 -220 0 -220 -420 0 -420 0 0
220 0 219 -37 6 c-265 45 -525 120 -746 214 l-42 18 -114 -191 c-62 -105 -114
-192 -116 -194 -3 -3 -695 404 -708 417 -5 5 44 96 107 204 64 107 116 199
116 202 0 4 -61 66 -135 137 -161 155 -297 312 -420 486 -2 2 -101 -51 -221
-117 l-218 -120 -22 37 c-53 90 -374 682 -374 689 0 5 102 64 228 132 125 69
229 126 231 127 1 2 -6 31 -18 66 -53 164 -102 404 -122 606 l-12 122 -86 1
c-184 2 -470 14 -476 21 -4 3 -1 192 6 418 l13 412 195 -6 c108 -4 246 -9 306
-12 l111 -6 18 78 c37 160 116 384 201 568 19 43 34 80 33 81 -2 1 -122 78
-268 170 -146 92 -266 169 -268 170 -2 2 375 600 443 703 2 1 123 -74 270
-168 147 -94 276 -175 287 -181 17 -9 37 7 156 123 76 73 190 173 254 221
l117 89 -52 96 c-181 340 -275 517 -274 519 1 0 139 74 307 163 168 89 333
177 366 195 l61 33 166 -311 c127 -238 170 -312 184 -311 10 1 65 15 123 32
114 34 243 63 358 82 l72 12 0 359 0 359 420 0 420 0 0 -359z"/>
<path d="M45875 11849 c-546 -67 -1029 -306 -1405 -695 -338 -350 -549 -781
-627 -1275 -21 -139 -24 -497 -5 -634 95 -669 459 -1256 1007 -1622 325 -217
680 -345 1070 -384 162 -16 445 -7 600 21 329 57 621 170 885 343 361 237 627
538 816 922 163 332 233 639 234 1017 0 391 -74 709 -247 1053 -348 692 -1040
1170 -1815 1254 -113 13 -411 12 -513 0z m575 -195 c621 -93 1172 -456 1503
-991 506 -819 393 -1893 -271 -2586 -579 -602 -1433 -814 -2222 -551 -634 211
-1138 717 -1345 1349 -46 139 -78 278 -94 415 -14 109 -14 401 -1 510 66 534
335 1033 739 1371 334 280 753 458 1177 498 129 13 381 5 514 -15z"/>
<path d="M45940 11153 c-165 -19 -376 -85 -542 -170 -154 -78 -266 -161 -404
-298 -234 -233 -380 -507 -446 -837 -30 -152 -32 -432 -4 -583 42 -228 144
-472 274 -655 86 -121 260 -296 382 -383 177 -125 395 -220 620 -268 88 -19
137 -23 305 -23 231 -1 329 13 515 74 249 81 443 202 635 394 223 224 358 457
429 741 37 150 48 244 48 410 -2 434 -163 822 -469 1129 -249 250 -550 404
-903 461 -88 14 -345 19 -440 8z m380 -188 c614 -83 1089 -526 1222 -1138 18
-84 22 -134 22 -282 0 -148 -4 -198 -22 -282 -63 -289 -188 -519 -397 -728
-194 -195 -404 -314 -667 -379 -487 -120 -996 23 -1352 380 -299 299 -449 705
-415 1124 46 575 435 1069 979 1245 218 70 418 89 630 60z"/>
<path d="M48697 9544 c-4 -4 -7 -45 -7 -91 0 -236 -65 -559 -166 -820 -364
-946 -1246 -1586 -2256 -1639 l-128 -7 0 -90 0 -90 148 6 c361 15 707 105
1047 272 303 148 501 290 736 524 221 222 376 435 514 706 175 345 277 742
287 1120 l3 110 -85 3 c-47 1 -89 0 -93 -4z"/>
<path d="M17747 12805 c-168 -46 -307 -179 -357 -343 -20 -63 -20 -98 -20
-2411 0 -2120 2 -2353 16 -2402 49 -166 169 -292 334 -351 l65 -23 2210 -3
2210 -2 -37 -428 c-46 -526 -45 -512 -12 -546 29 -28 74 -34 110 -13 11 7 276
230 588 497 l568 485 537 5 536 5 67 26 c133 52 224 130 286 246 67 126 63
-51 60 2530 l-3 2338 -23 60 c-47 126 -145 236 -259 294 -109 54 120 51 -3493
50 -2732 -1 -3344 -3 -3383 -14z m6775 -192 c71 -32 141 -103 174 -176 l29
-62 0 -2325 0 -2325 -24 -58 c-31 -79 -110 -158 -186 -186 -54 -20 -72 -21
-590 -21 -293 0 -544 -4 -557 -9 -13 -5 -250 -202 -528 -439 -278 -237 -506
-429 -507 -428 -2 1 12 179 31 396 36 415 36 438 -8 463 -16 9 -523 13 -2296
17 l-2275 5 -50 27 c-62 32 -129 103 -158 166 l-22 47 -3 2325 c-3 2580 -8
2374 64 2472 40 55 94 94 167 119 50 18 201 18 3372 16 l3320 -2 47 -22z"/>
<path d="M20838 11679 l-3 -150 -105 -35 c-58 -18 -107 -34 -110 -34 -3 0 -44
52 -90 115 -47 63 -89 114 -94 115 -9 0 -516 -377 -516 -383 0 -2 38 -55 85
-117 47 -62 85 -116 85 -119 0 -15 -84 -116 -94 -113 -6 2 -66 24 -134 49 -72
27 -127 42 -132 37 -8 -9 -220 -578 -220 -593 0 -4 53 -26 118 -50 66 -24 125
-46 132 -51 15 -10 15 -191 -1 -201 -5 -3 -68 -21 -139 -39 -72 -18 -130 -36
-130 -39 0 -12 159 -614 163 -618 3 -2 63 12 135 31 l131 34 47 -76 c26 -42
60 -94 76 -115 l30 -37 -53 -68 c-29 -37 -68 -86 -87 -109 l-33 -41 255 -196
c140 -108 256 -196 259 -196 3 0 42 47 86 104 l81 105 58 -24 c31 -13 90 -33
130 -45 l72 -22 0 -134 0 -134 325 0 325 0 0 135 0 134 43 11 c35 9 133 42
187 64 11 5 38 -24 94 -99 48 -64 84 -104 92 -101 25 10 503 371 503 381 0 6
-35 57 -78 114 l-78 104 45 61 c24 34 50 61 56 60 6 -1 64 -20 129 -44 64 -24
119 -41 122 -39 5 5 225 603 222 604 -1 1 -61 23 -134 49 l-131 48 5 97 c3 53
8 99 12 102 3 3 63 21 134 39 88 23 127 37 127 47 0 21 -151 597 -159 605 -4
4 -67 -8 -141 -27 -73 -19 -136 -35 -139 -35 -3 0 -18 21 -33 48 -15 26 -47
74 -71 106 l-45 60 91 118 c50 65 88 120 86 121 -79 64 -493 379 -502 382 -7
3 -48 -42 -101 -110 -49 -64 -94 -114 -100 -111 -12 4 -203 66 -223 72 -10 2
-13 42 -13 154 l0 150 -325 0 -324 0 -3 -151z m470 -170 l3 -136 72 -13 c99
-17 236 -62 330 -108 l77 -38 75 97 c41 54 80 101 85 104 7 5 220 -150 220
-160 0 -1 -36 -48 -79 -105 l-79 -103 64 -76 c78 -90 139 -181 188 -279 28
-56 41 -72 54 -68 99 29 215 57 224 54 12 -4 80 -249 72 -258 -3 -3 -57 -19
-120 -35 l-115 -31 -4 -194 c-3 -107 -6 -213 -7 -234 l-3 -39 110 -40 c61 -22
111 -41 113 -42 1 -1 -19 -59 -45 -129 -54 -147 -35 -138 -184 -83 l-96 35
-38 -65 c-48 -81 -115 -173 -171 -233 l-43 -46 70 -91 c38 -51 69 -96 69 -101
0 -13 -209 -164 -219 -158 -5 4 -38 44 -72 91 -35 47 -67 85 -71 85 -5 0 -39
-15 -76 -34 -93 -47 -200 -83 -307 -105 l-90 -18 -5 -119 -5 -119 -137 -3
-137 -3 -3 122 -3 122 -87 18 c-117 23 -228 61 -322 109 -43 22 -81 40 -86 40
-4 0 -34 -35 -66 -77 -33 -43 -64 -84 -70 -92 -10 -13 -29 -2 -122 69 l-110
84 73 95 73 96 -29 35 c-84 99 -152 199 -202 297 l-56 110 -108 -29 c-59 -15
-113 -28 -119 -28 -10 0 -74 218 -74 251 0 10 38 24 118 45 l117 31 -4 109
c-2 69 3 153 14 228 14 99 15 120 4 127 -8 5 -60 25 -116 45 -57 20 -103 41
-103 47 0 23 84 239 95 243 7 3 61 -13 120 -36 60 -22 112 -39 116 -38 4 2 34
44 67 94 33 50 89 123 125 161 l65 69 -80 107 c-44 59 -79 109 -77 111 64 50
210 156 216 156 5 0 44 -47 86 -104 l78 -104 95 45 c61 29 142 56 223 75 69
17 132 32 139 34 9 2 12 39 12 139 l0 136 138 -3 137 -3 3 -136z"/>
<path d="M21045 11159 c-518 -70 -895 -525 -861 -1040 36 -554 533 -979 1077
-919 446 49 792 365 875 798 18 95 18 270 0 364 -86 447 -465 777 -921 801
-55 3 -131 1 -170 -4z m365 -218 c136 -46 220 -99 325 -205 157 -158 227 -328
228 -551 1 -151 -17 -226 -85 -364 -44 -89 -64 -117 -142 -196 -172 -175 -376
-255 -611 -242 -124 7 -195 26 -310 82 -272 132 -445 409 -445 715 0 133 23
232 84 355 117 235 321 386 596 439 14 2 79 3 145 2 104 -3 133 -7 215 -35z"/>
<path d="M17940 9421 l0 -960 25 -79 c47 -149 144 -266 274 -330 l75 -37 1068
-3 1068 -2 0 90 0 90 -1037 0 c-1022 0 -1039 1 -1083 21 -85 38 -154 121 -190
228 -20 59 -20 81 -20 1001 l0 940 -90 0 -90 0 0 -959z"/>
<path d="M57415 9610 l-3130 -3130 3133 0 3132 0 0 485 0 485 1048 2 1047 3
49 24 c58 29 108 77 138 134 l23 42 3 1859 2 1859 -24 52 c-29 64 -79 115
-142 146 l-49 24 -1047 3 -1048 2 -2 570 -3 570 -3130 -3130z m2945 2335 l0
-345 -115 0 c-90 0 -126 -4 -167 -20 -58 -21 -132 -89 -164 -150 -18 -34 -19
-102 -19 -1905 0 -1803 1 -1871 19 -1905 32 -61 106 -129 164 -150 41 -16 77
-20 167 -20 l115 0 0 -395 0 -395 -80 0 -80 0 0 110 0 110 -95 0 -95 0 0 -110
0 -110 -90 0 -90 0 0 110 0 110 -95 0 -95 0 0 -110 0 -110 -95 0 -95 0 0 110
0 110 -95 0 -95 0 0 -110 0 -110 -90 0 -90 0 0 110 0 110 -95 0 -95 0 0 -110
0 -110 -95 0 -95 0 0 110 0 110 -95 0 -95 0 0 -110 0 -110 -90 0 -90 0 0 110
0 110 -95 0 -95 0 0 -110 0 -110 -95 0 -95 0 0 110 0 110 -95 0 -95 0 0 -110
0 -110 -90 0 -90 0 0 110 0 110 -95 0 -95 0 0 -110 0 -110 -95 0 -95 0 0 110
0 110 -95 0 -95 0 0 -110 0 -110 -90 0 -90 0 0 110 0 110 -95 0 -95 0 0 -110
0 -110 -95 0 -95 0 0 110 0 110 -95 0 -95 0 0 -110 0 -110 -90 0 -90 0 0 110
0 110 -95 0 -95 0 0 -110 0 -110 -95 0 -95 0 0 110 0 110 -95 0 -95 0 0 -110
0 -110 -90 0 -90 0 0 110 0 110 -95 0 -95 0 0 -110 0 -110 -207 0 -208 0 2815
2815 c1548 1548 2816 2815 2817 2815 2 0 3 -155 3 -345z m2286 -567 l34 -38 0
-1815 0 -1815 -34 -38 -34 -37 -1216 -3 c-1340 -3 -1266 -6 -1306 60 -20 33
-20 45 -20 1831 0 1986 -5 1836 63 1877 31 20 56 20 1255 18 l1224 -3 34 -37z"/>
<path d="M58170 8845 l-1265 -1265 1263 0 c1001 0 1264 3 1267 13 3 6 4 576 3
1265 l-3 1252 -1265 -1265z m1080 -130 l0 -945 -947 0 -948 0 945 945 c520
520 946 945 947 945 2 0 3 -425 3 -945z"/>
<path d="M60210 10790 l0 -330 1170 0 1170 0 0 330 0 330 -1170 0 -1170 0 0
-330z m2150 5 l0 -145 -985 0 -985 0 0 145 0 145 985 0 985 0 0 -145z"/>
<path d="M60400 9935 l0 -295 300 0 300 0 0 295 0 295 -300 0 -300 0 0 -295z
m410 -5 l0 -110 -110 0 -110 0 0 110 0 110 110 0 110 0 0 -110z"/>
<path d="M61080 9935 l0 -295 295 0 295 0 0 295 0 295 -295 0 -295 0 0 -295z
m408 -2 l-3 -108 -107 -3 -108 -3 0 111 0 110 110 0 111 0 -3 -107z"/>
<path d="M61760 9935 l0 -295 295 0 295 0 0 295 0 295 -295 0 -295 0 0 -295z
m400 -5 l0 -110 -110 0 -110 0 0 110 0 110 110 0 110 0 0 -110z"/>
<path d="M60400 9245 l0 -295 300 0 300 0 0 295 0 295 -300 0 -300 0 0 -295z
m410 5 l0 -110 -110 0 -110 0 0 110 0 110 110 0 110 0 0 -110z"/>
<path d="M61080 9245 l0 -295 295 0 295 0 0 295 0 295 -295 0 -295 0 0 -295z
m408 3 l3 -108 -111 0 -110 0 0 110 0 111 108 -3 107 -3 3 -107z"/>
<path d="M61760 9245 l0 -295 295 0 295 0 0 295 0 295 -295 0 -295 0 0 -295z
m400 5 l0 -110 -110 0 -110 0 0 110 0 110 110 0 110 0 0 -110z"/>
<path d="M60405 8848 c-3 -8 -4 -141 -3 -298 l3 -285 295 0 295 0 0 295 0 295
-293 3 c-230 2 -294 0 -297 -10z m405 -288 l0 -110 -110 0 -110 0 0 110 0 110
110 0 110 0 0 -110z"/>
<path d="M61080 8560 l0 -300 295 0 295 0 0 300 0 300 -295 0 -295 0 0 -300z
m410 0 l0 -110 -110 0 -110 0 0 110 0 110 110 0 110 0 0 -110z"/>
<path d="M61760 8560 l0 -300 295 0 295 0 0 300 0 300 -295 0 -295 0 0 -300z
m400 0 l0 -110 -110 0 -110 0 0 110 0 110 110 0 110 0 0 -110z"/>
<path d="M62420 8200 c0 -187 -3 -237 -15 -260 -30 -59 -39 -60 -430 -60
l-355 0 0 -90 0 -91 388 3 387 3 48 25 c59 29 101 76 133 144 23 49 24 59 24
304 l0 252 -90 0 -90 0 0 -230z"/>
<path d="M58118 11981 c-31 -10 -79 -35 -105 -54 -26 -20 -771 -760 -1655
-1644 l-1606 -1608 -65 -160 c-36 -88 -99 -243 -142 -344 -62 -149 -75 -191
-70 -218 7 -39 47 -73 86 -73 16 0 111 34 211 76 101 42 253 105 338 140 l154
63 1628 1628 c1849 1848 1693 1677 1693 1853 0 84 -3 102 -28 152 -79 161
-273 244 -439 189z m154 -171 c73 -21 138 -102 138 -175 0 -41 -31 -104 -69
-140 l-31 -29 -125 124 -125 125 38 38 c33 33 95 65 127 67 6 0 27 -5 47 -10z
m-214 -353 l122 -123 -35 -34 -35 -34 -125 124 -125 124 32 33 c18 18 34 33
38 33 3 0 60 -55 128 -123z m-1648 -1512 c-756 -756 -1380 -1375 -1386 -1375
-6 0 -21 11 -34 25 l-24 26 1379 1379 1380 1380 30 -30 30 -30 -1375 -1375z
m190 -190 c-756 -756 -1380 -1375 -1386 -1375 -6 0 -21 11 -34 25 l-24 26
1379 1379 1380 1380 30 -30 30 -30 -1375 -1375z m-1637 -1393 l88 -89 -61 -26
c-34 -15 -67 -27 -74 -27 -6 0 -34 22 -61 50 l-48 49 27 66 c16 36 31 65 35
65 3 0 46 -40 94 -88z"/>
</g>
</svg>
