<?xml version="1.0" standalone="no"?>
<!DOCTYPE svg PUBLIC "-//W3C//DTD SVG 20010904//EN"
 "http://www.w3.org/TR/2001/REC-SVG-20010904/DTD/svg10.dtd">
<svg version="1.0" xmlns="http://www.w3.org/2000/svg"
 width="5000.000000pt" height="5000.000000pt" viewBox="0 0 5000.000000 5000.000000"
 preserveAspectRatio="xMidYMid meet">

<g transform="translate(0.000000,5000.000000) scale(0.100000,-0.100000)"
fill="#000000" stroke="none">
<path d="M9695 48780 c-892 -65 -1667 -596 -2056 -1405 -109 -227 -175 -444
-216 -705 -25 -161 -25 -557 0 -718 86 -539 319 -1003 697 -1382 391 -393 893
-638 1460 -712 121 -15 456 -15 580 1 561 72 1067 317 1455 706 200 201 343
400 470 660 125 252 196 488 237 775 20 143 17 516 -5 660 -66 430 -223 805
-480 1149 -103 139 -347 378 -499 492 -334 248 -733 409 -1148 463 -152 19
-359 26 -495 16z m-280 -1514 c98 -26 252 -108 346 -185 l87 -70 23 26 c79 85
268 194 399 230 100 27 304 24 390 -6 185 -64 332 -227 385 -426 46 -174 27
-322 -71 -524 -178 -372 -653 -907 -1095 -1235 l-37 -27 -80 60 c-181 135
-503 443 -678 651 -329 390 -490 712 -469 940 22 240 147 436 338 530 45 22
107 44 137 50 75 12 252 5 325 -14z"/>
<path d="M15825 48783 c-1085 -68 -1989 -808 -2260 -1848 -57 -220 -70 -331
-70 -615 0 -297 11 -395 70 -626 175 -686 652 -1273 1294 -1594 778 -388 1723
-333 2451 144 212 139 465 376 617 576 564 747 660 1745 247 2586 -120 243
-267 449 -468 650 -458 459 -1030 706 -1681 727 -77 2 -167 2 -200 0z m373
-981 c386 -144 562 -579 383 -946 -113 -231 -324 -370 -581 -383 -124 -6 -220
11 -318 57 -236 110 -379 315 -402 576 -7 84 -6 114 10 185 49 227 192 405
397 495 98 44 157 54 298 50 117 -2 139 -6 213 -34z m-824 -1311 c84 -72 188
-130 317 -172 120 -41 128 -42 259 -43 244 -1 393 52 597 216 55 44 60 44 183
-14 118 -56 237 -175 298 -298 70 -143 73 -167 72 -628 0 -311 -3 -408 -13
-414 -6 -4 -518 -7 -1137 -5 l-1125 2 -5 365 c-3 201 -2 399 2 441 24 255 220
499 463 575 22 7 41 13 42 13 1 1 22 -16 47 -38z"/>
<path d="M28000 48784 c-605 -40 -1147 -276 -1571 -682 -740 -709 -969 -1780
-583 -2727 124 -303 304 -572 540 -809 381 -381 856 -619 1404 -703 161 -24
529 -24 690 0 560 86 1036 329 1420 723 221 228 369 443 491 717 144 323 211
637 212 1002 1 294 -33 514 -123 786 -121 369 -320 689 -600 969 -390 391
-881 634 -1420 704 -120 16 -366 26 -460 20z m1287 -1696 c88 -90 164 -172
167 -184 4 -12 3 -31 -2 -43 -4 -12 -215 -223 -468 -469 -254 -246 -592 -574
-752 -729 -277 -270 -292 -283 -328 -283 -37 0 -54 15 -508 468 -259 257 -476
476 -483 487 -27 43 -16 59 143 216 85 85 167 160 181 167 14 8 36 11 50 7 15
-3 151 -130 324 -302 l300 -297 137 135 c137 135 771 750 934 907 67 64 92 82
115 82 24 0 55 -27 190 -162z"/>
<path d="M21770 48769 c-460 -52 -909 -240 -1275 -535 -112 -90 -321 -303
-402 -409 -287 -380 -450 -786 -504 -1254 -17 -156 -7 -514 20 -666 40 -227
106 -439 198 -635 l40 -85 6 45 c3 25 11 90 17 145 6 55 27 177 45 270 118
586 356 1115 692 1535 89 112 325 349 437 440 129 104 331 235 483 313 500
257 1053 378 1731 379 127 0 232 2 232 5 0 13 -237 155 -355 213 -261 127
-492 196 -788 235 -128 16 -447 19 -577 4z"/>
<path d="M46198 48775 c-2 -2 -35 -6 -73 -10 -117 -10 -347 -57 -371 -76 -6
-5 -13 -7 -16 -4 -13 13 -289 -90 -427 -160 -95 -47 -236 -131 -257 -152 -10
-10 -19 -17 -21 -15 -6 5 -123 -80 -123 -89 0 -5 -5 -9 -11 -9 -27 0 -297
-255 -376 -355 -18 -22 -51 -65 -76 -95 -58 -74 -107 -146 -107 -159 0 -6 -4
-11 -8 -11 -11 0 -43 -56 -35 -64 3 -3 1 -6 -6 -6 -8 0 -11 -7 -7 -15 3 -8 1
-14 -4 -12 -6 1 -26 -26 -45 -61 -20 -35 -30 -60 -24 -56 7 4 1 -8 -13 -27
-33 -45 -80 -158 -72 -171 4 -6 3 -8 -3 -5 -11 7 -94 -231 -96 -277 -1 -14 -5
-26 -8 -26 -6 0 -26 -88 -35 -155 -3 -16 -11 -68 -19 -115 -16 -96 -32 -448
-21 -476 4 -10 9 -58 12 -107 2 -49 7 -93 10 -99 3 -5 7 -24 9 -41 7 -87 57
-298 97 -412 26 -75 116 -287 126 -297 5 -4 16 58 25 138 25 207 103 574 148
691 5 13 7 29 3 34 -3 5 -1 9 4 9 4 0 16 26 26 58 24 76 113 294 170 415 25
55 43 104 39 110 -3 7 -3 9 2 5 10 -9 22 7 62 82 16 30 46 81 66 113 20 31 37
61 37 66 0 5 4 11 8 13 4 2 29 34 56 72 48 69 48 70 31 98 l-16 28 37 0 c28 0
43 7 66 33 16 17 34 44 40 59 5 16 14 26 18 23 8 -5 125 123 125 137 0 4 4 8
8 7 12 -1 152 134 150 143 -2 5 1 7 6 5 9 -2 121 85 170 133 15 13 28 24 31
24 3 0 55 32 115 71 61 40 121 78 135 85 14 7 27 16 30 19 3 3 75 40 160 81
85 41 157 77 160 80 3 3 12 6 20 7 8 1 67 20 130 43 398 143 770 206 1305 219
l270 6 -94 60 c-51 33 -97 59 -102 58 -5 -2 -9 1 -9 6 0 15 -289 153 -306 147
-8 -3 -13 -2 -9 3 4 8 -42 29 -78 35 -7 1 -21 7 -32 13 -49 26 -269 82 -405
103 -41 6 -88 14 -104 17 -17 3 -26 1 -23 -4 4 -5 0 -10 -8 -10 -8 0 -12 4 -9
8 2 4 -4 9 -13 10 -36 3 -441 7 -445 4z"/>
<path d="M3595 42714 c-16 -2 -73 -9 -125 -15 -611 -69 -1226 -412 -1612 -899
-285 -359 -454 -749 -525 -1210 -24 -159 -24 -519 0 -680 23 -147 58 -296 103
-434 51 -155 143 -363 144 -326 0 9 7 68 15 133 54 436 167 825 356 1226 l59
124 0 133 c0 131 0 133 26 153 21 17 41 21 95 21 l68 0 42 58 c141 192 371
433 549 576 433 346 1006 572 1647 650 179 22 509 39 656 34 70 -3 127 -3 127
-1 0 12 -234 153 -344 207 -278 136 -558 215 -871 246 -94 9 -344 11 -410 4z"/>
<path d="M21815 42714 c-105 -12 -292 -46 -398 -73 -160 -42 -285 -89 -462
-175 -744 -364 -1252 -1073 -1360 -1899 -9 -72 -15 -196 -15 -317 0 -377 65
-686 214 -1019 120 -269 278 -494 505 -722 226 -226 393 -346 666 -480 366
-179 744 -259 1160 -246 202 7 332 24 513 68 907 221 1621 952 1821 1865 57
256 71 601 37 859 -57 419 -225 830 -476 1160 -397 522 -958 858 -1605 961
-97 15 -509 27 -600 18z m620 -1439 c18 -9 37 -27 44 -41 8 -17 11 -145 11
-415 l0 -391 -29 -29 -29 -29 -397 0 c-253 0 -403 4 -416 10 -47 26 -49 45
-49 444 0 219 4 385 10 400 5 14 24 35 42 46 31 19 51 20 406 20 317 0 379 -2
407 -15z m-1134 -1123 l29 -32 0 -395 0 -395 -29 -32 -29 -33 -374 -3 c-413
-4 -437 -1 -468 51 -19 30 -20 53 -20 410 0 323 2 382 16 408 29 58 41 59 462
56 l384 -2 29 -33z m1160 0 l29 -32 0 -395 0 -395 -29 -32 -29 -33 -374 -3
c-413 -4 -437 -1 -468 51 -19 30 -20 53 -20 410 0 323 2 382 16 408 29 58 41
59 462 56 l384 -2 29 -33z m1124 22 c63 -30 65 -40 65 -449 0 -409 -2 -419
-65 -449 -48 -23 -747 -24 -801 -1 -62 26 -64 39 -64 450 0 408 2 424 62 450
51 22 756 22 803 -1z"/>
<path d="M21969 40834 c-32 -69 -59 -127 -59 -130 0 -3 14 -4 31 -2 29 3 34 9
68 90 20 48 38 88 41 88 3 0 21 -40 40 -90 34 -88 35 -90 68 -90 19 0 32 4 30
8 -1 5 -28 63 -58 130 -75 165 -81 165 -161 -4z"/>
<path d="M20867 39807 c-116 -56 -128 -64 -125 -86 3 -20 23 -33 131 -82 l127
-58 0 33 c0 32 -2 34 -85 66 -47 18 -88 36 -90 40 -3 4 36 24 85 45 88 37 90
38 90 71 0 19 -1 34 -2 33 -2 0 -61 -29 -131 -62z"/>
<path d="M21963 39725 c81 -179 83 -179 165 -6 34 71 62 132 62 136 0 3 -14 5
-31 3 -28 -3 -34 -10 -68 -90 -20 -48 -40 -90 -43 -93 -3 -3 -23 37 -44 89
-37 94 -38 96 -70 96 l-33 0 62 -135z"/>
<path d="M23050 39838 c0 -32 2 -34 95 -72 52 -22 92 -43 88 -47 -5 -3 -47
-22 -95 -40 -86 -33 -88 -35 -88 -66 0 -18 1 -33 3 -33 2 0 62 27 133 59 176
81 176 86 8 166 -69 33 -130 62 -135 63 -5 2 -9 -11 -9 -30z"/>
<path d="M27980 42717 c-3 -3 -44 -8 -91 -11 -150 -11 -333 -49 -514 -106 -55
-18 -110 -38 -122 -46 -13 -8 -23 -12 -23 -10 0 9 -145 -56 -152 -68 -4 -6 -8
-7 -8 -3 0 10 -154 -72 -158 -84 -2 -5 -8 -7 -13 -3 -5 3 -9 0 -9 -5 0 -6 -6
-11 -13 -11 -17 0 -190 -117 -287 -195 -108 -85 -181 -156 -173 -168 3 -5 1
-7 -5 -4 -13 9 -144 -132 -135 -146 3 -5 2 -7 -4 -4 -13 8 -119 -126 -206
-258 -109 -168 -258 -480 -241 -507 4 -6 2 -8 -4 -4 -9 5 -26 -37 -27 -69 0
-5 -2 -12 -5 -15 -19 -18 -80 -282 -101 -440 -17 -122 -17 -498 0 -605 7 -44
15 -98 17 -120 3 -22 10 -58 16 -80 5 -22 12 -51 14 -65 3 -14 7 -32 10 -40 3
-8 8 -26 10 -40 10 -53 86 -270 95 -270 6 0 8 -4 5 -9 -7 -10 39 -114 47 -109
3 2 9 -1 14 -6 5 -5 3 -6 -4 -2 -17 10 -16 -2 6 -42 l17 -33 12 114 c16 148
45 319 84 482 17 72 31 137 32 145 1 8 3 17 6 20 3 3 29 77 58 165 82 249 192
490 320 705 48 80 144 226 164 250 7 8 26 32 42 55 60 82 196 233 297 329 57
55 103 103 101 108 -1 5 2 7 6 4 5 -3 20 4 33 15 60 53 332 249 345 249 16 0
132 79 126 85 -4 5 -2 5 5 1 11 -6 169 66 183 83 3 3 12 7 20 9 8 2 48 17 89
34 92 37 314 113 361 123 19 4 39 10 45 13 5 3 16 7 25 8 42 6 336 70 340 74
3 3 21 5 40 6 19 0 107 8 195 18 88 10 281 21 430 25 l270 6 -95 61 c-120 76
-230 137 -230 127 0 -4 -4 -3 -8 4 -11 17 -217 104 -332 141 -152 48 -143 46
-135 31 5 -8 -1 -6 -13 5 -12 10 -28 16 -36 13 -8 -3 -16 -3 -18 1 -4 11 -160
41 -191 38 -15 -2 -24 0 -22 4 3 4 -19 10 -48 14 -73 8 -451 20 -457 13z
m1495 -425 c-3 -3 -11 0 -18 7 -9 10 -8 11 6 5 10 -3 15 -9 12 -12z m-2790
-81 c3 -5 2 -12 -3 -15 -5 -3 -9 1 -9 9 0 17 3 19 12 6z m-30 -31 c-3 -5 -12
-10 -18 -10 -7 0 -6 4 3 10 19 12 23 12 15 0z m-745 -966 c0 -8 -19 -13 -24
-6 -3 5 1 9 9 9 8 0 15 -2 15 -3z m-46 -80 c3 -8 2 -12 -4 -9 -6 3 -10 10 -10
16 0 14 7 11 14 -7z"/>
<path d="M33923 42704 c-541 -65 -1048 -312 -1439 -699 -388 -385 -631 -869
-710 -1420 -27 -179 -24 -515 4 -700 111 -721 517 -1339 1134 -1731 652 -414
1504 -490 2228 -199 842 338 1432 1110 1536 2011 20 172 15 495 -11 659 -95
617 -422 1174 -917 1568 -361 287 -810 469 -1277 516 -138 15 -410 12 -548 -5z
m307 -1479 c99 -26 257 -105 336 -168 74 -60 139 -133 181 -205 21 -35 30 -42
47 -38 105 30 157 38 231 33 159 -11 309 -88 400 -205 35 -45 39 -48 120 -64
235 -46 421 -220 465 -435 48 -229 -80 -472 -307 -582 -128 -63 -73 -61 -1376
-61 -1044 0 -1197 2 -1265 16 -331 68 -562 333 -563 644 0 113 12 169 56 265
105 229 337 385 597 402 l88 6 44 61 c125 174 304 288 537 341 85 19 319 14
409 -10z"/>
<path d="M40075 42710 c-593 -66 -1100 -306 -1510 -715 -368 -368 -603 -832
-692 -1370 -23 -137 -26 -580 -5 -715 22 -142 62 -309 104 -435 39 -120 137
-349 145 -341 2 2 8 48 14 102 34 347 158 821 293 1123 24 53 59 132 79 176
19 44 47 121 61 171 14 51 51 160 83 242 l58 151 54 -31 54 -31 18 24 c10 13
19 27 19 30 0 3 -22 18 -50 33 -27 15 -50 30 -50 32 0 3 37 58 83 122 97 137
264 310 392 404 155 116 344 215 502 264 l73 22 10 -39 c12 -43 13 -44 40 -29
16 8 17 15 9 42 -5 18 -5 35 -1 39 13 12 136 37 212 45 41 4 131 24 200 45
370 113 665 161 1075 178 115 5 254 7 308 4 53 -3 97 -3 97 0 0 9 -103 77
-215 142 -260 150 -561 254 -880 301 -120 18 -468 26 -580 14z"/>
<path d="M3592 36649 c-572 -41 -1113 -286 -1531 -694 -412 -401 -651 -880
-733 -1470 -16 -117 -16 -484 0 -600 36 -254 99 -480 194 -696 61 -138 57
-141 78 56 6 61 25 178 41 260 128 647 400 1222 784 1660 39 44 88 102 109
128 21 27 67 70 101 95 34 26 105 81 157 124 266 215 634 407 985 513 382 116
741 166 1206 167 130 1 237 2 237 3 0 2 -42 30 -94 64 -350 227 -748 359
-1176 391 -149 11 -193 11 -358 -1z"/>
<path d="M9690 36654 c-19 -2 -78 -9 -130 -15 -434 -49 -878 -236 -1236 -520
-411 -326 -726 -818 -853 -1329 -48 -192 -63 -307 -68 -532 -6 -237 5 -374 47
-577 180 -870 818 -1579 1667 -1851 402 -129 873 -151 1283 -60 631 141 1170
511 1535 1055 91 136 225 411 279 575 248 753 128 1571 -324 2212 -242 342
-551 605 -935 794 -343 168 -645 241 -1035 248 -107 3 -211 2 -230 0z m1367
-805 c17 -17 4 -39 -23 -39 l-24 0 0 -549 0 -549 21 -5 c18 -5 21 -12 17 -46
-3 -34 0 -42 17 -47 48 -16 104 -65 129 -116 20 -41 26 -67 26 -120 l0 -68 40
-20 c64 -32 70 -55 70 -244 l0 -165 -30 -35 c-17 -18 -41 -37 -55 -40 l-25 -6
0 -278 c0 -247 -2 -281 -19 -317 -22 -50 -67 -96 -118 -121 -37 -18 -84 -19
-1273 -22 -870 -2 -1250 0 -1286 8 -68 14 -124 57 -160 122 l-29 53 -3 563
c-2 357 1 583 7 618 21 110 110 191 221 202 28 2 50 9 50 15 0 6 7 19 17 29
24 27 125 26 153 -2 11 -11 20 -24 20 -30 0 -6 33 -10 79 -10 l79 0 4 133 c3
119 5 135 26 165 47 65 13 62 757 62 750 0 723 2 765 -65 17 -28 20 -49 20
-164 l0 -131 160 0 160 0 0 36 c0 27 5 37 20 41 20 5 20 14 20 554 0 537 0
549 -19 549 -23 0 -35 15 -27 35 4 12 27 15 104 15 59 0 102 -4 109 -11z"/>
<path d="M9189 34825 c-37 -20 -59 -73 -59 -139 l0 -56 605 0 605 0 0 63 c0
71 -24 121 -66 137 -15 6 -230 10 -542 10 -428 -1 -522 -3 -543 -15z"/>
<path d="M8571 34414 c-18 -23 -21 -41 -21 -124 0 -108 13 -138 60 -142 22 -3
25 1 28 35 4 49 26 44 30 -6 2 -24 8 -37 18 -37 11 0 14 16 14 70 0 56 3 70
15 70 12 0 15 -14 15 -70 0 -56 3 -70 15 -70 11 0 15 11 15 40 0 29 4 40 15
40 11 0 15 -11 15 -40 0 -29 4 -40 15 -40 11 0 15 11 15 41 0 52 24 48 28 -4
5 -54 32 -50 32 4 0 52 24 48 28 -5 4 -48 26 -43 30 7 4 48 20 48 24 0 2 -27
8 -39 21 -41 15 -3 17 5 17 67 0 56 3 71 15 71 12 0 15 -14 15 -70 0 -56 3
-70 15 -70 11 0 15 11 15 41 0 52 24 48 28 -4 5 -54 32 -50 32 4 0 52 24 48
28 -5 4 -48 26 -43 30 8 4 48 26 43 30 -8 4 -48 26 -43 30 7 4 48 20 48 24 0
2 -27 8 -39 21 -41 15 -3 17 5 17 67 0 56 3 71 15 71 12 0 15 -14 15 -70 0
-56 3 -70 15 -70 11 0 15 11 15 41 0 52 24 48 28 -4 5 -54 32 -50 32 4 0 52
24 48 28 -5 4 -48 26 -43 30 8 4 48 26 43 30 -8 4 -48 26 -43 30 7 4 48 20 48
24 0 2 -27 8 -39 21 -41 15 -3 17 5 17 67 0 56 3 71 15 71 12 0 15 -14 15 -70
0 -56 3 -70 15 -70 11 0 15 11 15 41 0 52 24 48 28 -4 5 -54 32 -50 32 4 0 52
24 48 28 -5 4 -48 26 -43 30 8 4 48 26 43 30 -8 4 -48 26 -43 30 7 4 48 20 48
24 0 2 -27 8 -39 21 -41 15 -3 17 5 17 67 0 56 3 71 15 71 12 0 15 -14 15 -70
0 -56 3 -70 15 -70 11 0 15 11 15 41 0 52 24 48 28 -5 4 -48 26 -43 30 8 4 48
26 43 30 -8 4 -48 26 -43 30 7 4 48 20 48 24 0 2 -26 8 -38 18 -38 10 0 16 12
18 38 4 48 20 48 24 0 2 -27 8 -39 21 -41 15 -3 17 5 17 67 0 56 3 71 15 71
12 0 15 -14 15 -70 0 -56 3 -70 15 -70 11 0 15 11 15 41 0 52 24 48 28 -5 4
-48 26 -43 30 8 4 48 26 43 30 -8 4 -48 26 -43 30 7 4 48 20 48 24 0 2 -26 8
-38 18 -38 10 0 16 12 18 38 4 48 20 48 24 0 2 -27 8 -39 21 -41 15 -3 17 5
17 67 0 56 3 71 15 71 12 0 15 -14 15 -70 0 -56 3 -70 15 -70 11 0 15 11 15
41 0 52 24 48 28 -5 4 -48 26 -43 30 8 4 48 26 43 30 -8 4 -48 26 -43 30 7 4
48 20 48 24 0 2 -26 8 -38 18 -38 10 0 16 12 18 38 4 48 20 48 24 0 2 -27 8
-39 21 -41 15 -3 17 5 17 67 0 56 3 71 15 71 12 0 15 -14 15 -70 0 -56 3 -70
15 -70 11 0 15 11 15 41 0 52 24 48 28 -4 4 -43 10 -45 46 -16 25 20 26 23 26
134 0 106 -1 115 -22 129 -20 14 -149 16 -1184 16 l-1163 0 -20 -26z"/>
<path d="M10428 34039 c-117 -27 -234 -123 -290 -236 -31 -64 -33 -73 -33
-178 0 -108 1 -113 38 -187 83 -169 264 -263 454 -237 107 15 169 45 251 123
169 160 174 417 14 588 -55 59 -111 94 -193 119 -65 20 -175 24 -241 8z"/>
<path d="M8556 34008 c-14 -19 -16 -71 -16 -359 l0 -338 26 -20 c26 -21 34
-21 681 -21 l654 0 25 25 25 25 -3 341 c-3 324 -4 341 -22 355 -17 12 -127 14
-687 14 l-668 0 -15 -22z m1152 -140 c9 -9 12 -72 12 -220 l0 -208 -26 -10
c-15 -6 -203 -10 -462 -10 -380 0 -440 2 -460 16 -21 15 -22 20 -22 218 0 144
3 205 12 214 9 9 128 12 473 12 345 0 464 -3 473 -12z"/>
<path d="M8923 33730 c-56 -23 -68 -111 -20 -145 88 -62 189 60 106 129 -32
27 -50 31 -86 16z"/>
<path d="M9470 33727 c-32 -16 -54 -61 -46 -93 24 -93 166 -82 166 13 0 45 -9
62 -41 78 -34 18 -47 18 -79 2z"/>
<path d="M21860 36649 c-157 -12 -313 -39 -328 -58 -8 -9 -11 -10 -7 -3 9 17
4 16 -137 -22 -180 -50 -470 -167 -490 -200 -4 -6 -8 -7 -8 -3 0 12 -229 -125
-273 -164 -7 -5 -42 -32 -80 -60 -39 -29 -64 -55 -61 -61 4 -7 2 -8 -4 -4 -6
4 -49 -27 -99 -72 -87 -79 -149 -141 -126 -128 7 3 -14 -19 -45 -51 -79 -80
-254 -313 -235 -313 4 0 3 -4 -2 -8 -19 -13 -55 -69 -48 -76 3 -3 1 -6 -6 -6
-7 0 -9 -4 -6 -10 3 -5 2 -10 -2 -10 -14 0 -57 -86 -49 -99 4 -6 1 -11 -8 -11
-9 0 -17 -4 -17 -10 -3 -19 -5 -25 -21 -55 -16 -30 -70 -166 -102 -255 -24
-70 -56 -193 -51 -198 3 -3 0 -11 -5 -18 -6 -6 -12 -27 -14 -45 -2 -19 -6 -41
-9 -49 -27 -69 -64 -622 -41 -608 5 3 10 -40 11 -100 1 -58 6 -108 10 -111 4
-3 9 -28 11 -56 1 -27 6 -51 12 -53 5 -2 7 -9 4 -16 -9 -22 61 -296 75 -296 3
0 7 -10 7 -23 2 -25 71 -205 87 -226 6 -7 12 -19 13 -26 1 -6 8 -24 16 -39 13
-26 15 -20 27 96 20 195 74 465 128 647 14 47 26 89 27 95 1 6 4 16 7 21 4 6
14 35 24 65 29 90 112 296 162 399 25 52 46 101 46 108 0 7 3 10 7 8 4 -2 17
17 29 43 91 187 295 470 476 660 33 35 60 69 60 75 1 7 6 11 12 10 14 -3 73
63 65 73 -4 4 -2 4 5 0 7 -4 50 25 105 71 51 43 108 89 126 101 18 13 30 27
27 32 -3 5 0 12 6 16 8 4 9 3 5 -4 -13 -21 1 -13 109 57 120 80 354 200 500
258 446 178 928 262 1500 263 l190 0 -90 60 c-49 32 -95 59 -101 60 -6 0 -17
7 -24 15 -7 9 -19 14 -27 11 -8 -3 -12 -2 -9 3 6 8 -46 35 -60 31 -4 -1 -10 3
-13 8 -21 33 -411 181 -518 197 -15 2 -39 7 -53 11 -14 4 -39 7 -57 8 -17 1
-29 4 -27 7 8 14 -349 50 -471 47 -33 0 -107 -4 -165 -9z"/>
<path d="M34050 36653 c-224 -21 -397 -54 -568 -108 -915 -290 -1574 -1070
-1708 -2022 -69 -497 25 -1044 258 -1483 385 -729 1109 -1222 1925 -1310 169
-19 526 -8 682 20 519 92 967 326 1336 696 370 371 600 828 692 1371 26 154
26 581 0 738 -63 382 -190 706 -394 1008 -101 150 -178 243 -313 377 -416 413
-939 656 -1530 709 -107 10 -299 12 -380 4z m1547 -1522 c65 -29 134 -101 159
-166 18 -48 19 -86 19 -910 0 -857 0 -860 -21 -906 -31 -67 -87 -124 -152
-156 l-57 -28 -1320 0 -1320 0 -46 21 c-64 30 -125 88 -157 148 l-27 51 0 875
0 875 24 45 c28 54 85 116 126 138 80 42 52 41 1415 39 l1305 -2 52 -24z"/>
<path d="M32905 34981 c-16 -10 -39 -28 -50 -41 -20 -22 -20 -38 -23 -869 -2
-825 -2 -847 17 -878 11 -18 32 -40 46 -49 25 -16 27 -16 44 2 10 10 197 268
415 572 219 303 401 552 406 552 4 0 74 -106 155 -235 81 -129 150 -233 154
-231 4 3 130 216 281 475 151 259 277 470 280 470 3 0 79 -124 170 -277 201
-340 757 -1278 769 -1300 7 -13 13 -10 30 19 21 34 21 39 21 869 0 816 -1 836
-20 868 -11 18 -34 41 -52 52 -32 20 -53 20 -1323 20 -1238 0 -1291 -1 -1320
-19z m501 -217 c160 -66 194 -290 63 -408 -47 -43 -133 -71 -193 -62 -53 8
-138 57 -165 95 -147 206 63 471 295 375z"/>
<path d="M46205 36649 c-479 -37 -953 -222 -1332 -521 -98 -77 -285 -259 -369
-359 -146 -175 -308 -450 -397 -674 -166 -417 -211 -933 -122 -1380 41 -205
122 -450 200 -604 l22 -44 12 109 c78 711 346 1385 751 1888 117 146 348 372
488 479 428 327 970 539 1576 617 191 24 520 43 675 39 65 -2 117 -1 115 3 -2
3 -34 26 -72 51 -352 231 -755 366 -1187 397 -157 11 -202 11 -360 -1z"/>
<path d="M9780 30593 c-547 -25 -1051 -213 -1465 -548 -106 -86 -291 -271
-370 -370 -302 -377 -486 -830 -536 -1314 -15 -142 -6 -467 16 -606 83 -531
317 -995 690 -1370 66 -66 158 -151 205 -189 540 -432 1229 -618 1915 -517
687 101 1301 490 1689 1071 211 315 337 650 397 1055 21 136 18 521 -4 665
-82 533 -305 986 -670 1366 -275 286 -606 498 -977 626 -269 92 -619 144 -890
131z m1359 -1232 c113 -35 194 -100 254 -202 58 -98 57 -84 57 -1044 0 -950 1
-925 -54 -1034 -55 -107 -179 -197 -305 -221 -74 -14 -2369 -14 -2442 0 -170
32 -310 166 -348 331 -7 28 -11 369 -11 930 0 785 2 892 16 940 22 74 45 116
92 170 54 61 111 99 191 126 l66 22 1212 1 c1159 0 1214 -1 1272 -19z"/>
<path d="M9677 28809 c-325 -45 -620 -181 -839 -387 -39 -37 -77 -82 -85 -100
-26 -62 16 -141 84 -158 49 -13 90 6 165 73 156 141 346 243 545 295 154 39
383 50 533 24 242 -42 475 -154 650 -313 77 -69 100 -83 138 -83 74 0 122 52
122 132 0 40 -5 47 -78 118 -194 188 -456 323 -742 382 -110 22 -386 32 -493
17z"/>
<path d="M9757 28368 c-223 -20 -430 -104 -609 -246 -108 -86 -128 -113 -128
-174 0 -44 4 -54 34 -84 30 -30 40 -34 84 -34 47 0 55 4 109 51 161 141 323
215 528 241 242 29 503 -56 705 -231 61 -52 77 -61 110 -61 56 0 87 15 110 52
25 41 25 94 1 134 -29 48 -186 168 -291 223 -200 105 -429 150 -653 129z"/>
<path d="M9752 27910 c-135 -25 -272 -92 -361 -179 -47 -46 -51 -53 -51 -96 0
-58 24 -100 68 -121 48 -23 89 -12 158 43 95 74 170 105 273 111 133 7 228
-25 338 -116 51 -42 63 -47 106 -47 43 0 52 4 83 37 37 41 45 92 23 142 -14
31 -116 113 -189 154 -118 65 -310 96 -448 72z"/>
<path d="M9820 27489 c-70 -29 -110 -106 -90 -177 16 -63 71 -102 142 -102
142 0 193 175 77 263 -31 22 -95 31 -129 16z"/>
<path d="M34060 30589 c-584 -35 -1134 -279 -1559 -694 -247 -241 -428 -504
-554 -805 -125 -300 -183 -564 -194 -890 -14 -414 68 -791 251 -1165 131 -266
266 -456 471 -660 204 -205 394 -340 660 -471 375 -184 749 -264 1170 -251
808 26 1538 436 1988 1117 145 220 282 543 341 806 59 259 75 605 41 859 -74
556 -314 1044 -705 1435 -365 365 -823 602 -1330 690 -91 16 -428 45 -450 38
-3 0 -61 -4 -130 -9z m1174 -1680 c358 -193 653 -352 655 -354 3 -4 -773
-1453 -833 -1557 l-22 -37 -324 175 c-178 96 -325 174 -327 174 -2 0 -3 -7 -3
-15 0 -8 -1 -15 -2 -16 -15 -3 -1504 -125 -1507 -123 -4 3 -152 1796 -149
1799 2 1 316 28 698 59 382 31 722 59 756 63 l61 5 7 -113 c4 -63 11 -141 14
-173 l7 -60 144 268 c112 209 147 266 159 261 9 -3 309 -164 666 -356z"/>
<path d="M34284 28529 c-175 -326 -320 -598 -322 -603 -2 -9 1091 -606 1123
-613 7 -2 632 1142 653 1196 2 6 -1098 603 -1123 609 -7 2 -153 -258 -331
-589z"/>
<path d="M33426 28909 c-319 -27 -580 -50 -581 -52 -4 -5 111 -1356 115 -1360
6 -5 902 69 922 75 7 3 -24 24 -68 47 -45 23 -89 47 -98 54 -16 11 5 54 214
442 l232 430 -11 145 c-7 80 -14 173 -18 208 l-6 62 -61 -1 c-33 -1 -322 -23
-640 -50z"/>
<path d="M15695 30579 c-220 -25 -437 -78 -631 -154 -584 -228 -1060 -668
-1330 -1230 -158 -328 -231 -627 -241 -991 -8 -280 20 -509 95 -769 30 -103
107 -305 147 -384 l22 -44 12 114 c58 532 240 1088 498 1519 38 64 94 168 126
233 192 399 512 699 922 864 55 22 129 48 165 57 36 10 112 37 170 61 451 187
921 275 1482 279 142 0 258 2 258 2 0 6 -200 130 -270 167 -261 141 -605 245
-909 276 -117 12 -411 12 -516 0z"/>
<path d="M27833 30574 c-1120 -135 -2009 -1023 -2149 -2144 -16 -132 -18 -434
-4 -565 30 -272 123 -595 234 -812 l24 -48 5 45 c49 415 112 691 234 1020 257
697 710 1257 1298 1605 317 187 723 332 1120 399 242 41 664 69 880 59 l100
-4 -100 67 c-212 142 -534 277 -806 338 -245 55 -582 71 -836 40z"/>
<path d="M46130 30579 c-193 -23 -528 -104 -523 -127 2 -6 -4 -9 -12 -5 -23 8
-120 -29 -283 -109 -89 -43 -140 -73 -136 -80 4 -7 2 -8 -5 -4 -14 9 -265
-155 -275 -179 -3 -9 -10 -14 -14 -11 -5 3 -34 -18 -66 -47 -31 -29 -56 -50
-56 -47 -1 15 -252 -259 -317 -344 -77 -104 -175 -256 -171 -267 2 -4 -5 -16
-15 -27 -21 -23 -117 -216 -117 -235 0 -7 -4 -17 -9 -22 -15 -15 -72 -176 -66
-185 3 -5 1 -10 -3 -12 -26 -10 -110 -416 -113 -544 -9 -367 -3 -462 42 -687
26 -134 102 -394 118 -407 3 -3 7 -12 9 -20 3 -15 21 -57 67 -155 23 -49 23
-49 24 -18 3 121 64 466 117 662 18 69 31 128 28 132 -2 4 0 9 4 11 5 1 24 48
42 103 18 55 53 150 77 210 48 117 197 424 231 471 11 16 45 70 77 119 65 102
150 217 212 288 l43 49 2 176 3 177 185 5 185 5 61 47 c171 131 455 291 669
376 448 177 931 262 1495 262 l184 0 -34 24 c-19 13 -38 22 -42 19 -5 -2 -8 0
-8 5 0 13 -68 53 -91 55 -10 1 -16 5 -13 9 3 4 -13 16 -35 27 -33 17 -41 18
-50 7 -9 -11 -9 -15 1 -19 9 -4 9 -6 1 -6 -16 -1 -26 16 -13 24 5 3 10 10 10
15 0 11 -80 54 -80 43 0 -5 -4 -3 -8 3 -8 12 -169 82 -249 108 -29 10 -58 14
-64 10 -7 -4 -9 -3 -6 3 4 7 -23 19 -71 32 -92 25 -95 25 -87 9 4 -7 0 -5 -8
5 -8 10 -21 17 -29 16 -7 -1 -21 1 -30 5 -10 5 -32 9 -50 10 -18 0 -35 4 -38
8 -3 4 -66 13 -140 22 -146 16 -439 19 -560 5z m-886 -317 c3 -5 -1 -9 -9 -9
-8 0 -12 4 -9 9 3 4 7 8 9 8 2 0 6 -4 9 -8z"/>
<path d="M9617 24519 c-584 -62 -1130 -330 -1535 -754 -354 -370 -572 -815
-659 -1340 -26 -157 -26 -572 0 -735 41 -259 113 -484 232 -725 194 -393 484
-722 857 -971 125 -84 366 -206 511 -259 412 -151 921 -186 1357 -95 929 195
1676 923 1893 1845 49 206 61 322 62 570 0 307 -32 517 -121 782 -258 775
-880 1372 -1664 1598 -287 83 -644 115 -933 84z m1019 -680 c170 -91 367 -257
489 -414 379 -487 447 -1136 176 -1685 -125 -254 -304 -460 -530 -612 -210
-140 -372 -205 -668 -264 -23 -4 -23 -6 -23 -169 l0 -164 323 -3 322 -3 51
-27 c83 -44 144 -137 144 -220 l0 -28 -956 0 -956 0 7 48 c15 108 99 198 205
221 29 6 160 11 305 11 l255 0 0 159 0 160 -57 6 c-262 31 -580 141 -618 214
-54 105 49 223 158 182 21 -8 26 -6 40 24 15 32 18 33 46 22 l29 -11 -19 -37
-19 -37 83 -30 c484 -174 1026 -53 1393 313 191 190 313 416 371 685 23 107
25 398 4 505 -20 101 -73 260 -116 346 -107 213 -293 421 -487 543 -26 17 -27
17 -43 -14 -9 -17 -13 -35 -10 -40 3 -5 -15 3 -40 16 -43 25 -60 39 -32 28 8
-3 18 6 25 21 16 36 15 43 -9 50 -51 16 -76 118 -43 174 40 67 110 78 200 30z
m-763 -126 c-7 -2 -19 -2 -25 0 -7 3 -2 5 12 5 14 0 19 -2 13 -5z m-115 -10
c-10 -2 -28 -2 -40 0 -13 2 -5 4 17 4 22 1 32 -1 23 -4z m250 0 c-10 -2 -28
-2 -40 0 -13 2 -5 4 17 4 22 1 32 -1 23 -4z m-335 -10 c-7 -2 -19 -2 -25 0 -7
3 -2 5 12 5 14 0 19 -2 13 -5z m483 -13 c43 -11 117 -34 164 -52 l85 -33 -46
-6 c-98 -14 -129 -51 -129 -155 l0 -74 -102 2 c-112 2 -137 -5 -165 -50 -10
-15 -42 -55 -71 -89 -56 -65 -62 -93 -20 -93 13 0 86 -2 163 -4 l140 -4 31 35
c25 30 32 34 42 22 71 -89 75 -92 138 -91 60 0 124 -13 124 -27 0 -4 -12 -18
-26 -32 -21 -20 -38 -24 -100 -27 l-74 -4 -44 40 -43 40 -109 7 c-114 8 -213
-3 -242 -27 -8 -7 -21 -28 -29 -45 -16 -39 -42 -58 -107 -77 -27 -8 -59 -25
-72 -37 -21 -19 -24 -32 -23 -88 0 -90 22 -213 42 -244 21 -33 81 -52 236 -75
76 -12 126 -25 132 -33 5 -8 9 -29 9 -47 0 -47 22 -92 63 -130 41 -36 43 -44
51 -152 3 -41 17 -110 31 -153 41 -127 31 -174 -56 -257 -58 -56 -69 -82 -53
-124 16 -41 120 -27 214 28 61 36 87 47 172 71 76 21 88 40 97 158 8 99 15
119 55 156 42 40 49 79 42 240 -4 80 -3 151 1 156 4 6 25 23 46 38 l37 28 0
78 0 78 -75 24 c-52 16 -81 31 -91 48 -24 35 -50 179 -36 193 21 21 60 -8 88
-64 38 -78 61 -98 105 -98 55 0 90 33 96 92 l5 45 -36 7 c-37 7 -56 29 -56 65
0 30 21 26 105 -20 75 -41 79 -46 90 -111 4 -21 21 -52 42 -75 20 -21 50 -60
67 -88 l31 -50 6 45 c3 25 7 41 8 35 57 -381 -36 -735 -271 -1028 -55 -70
-208 -218 -185 -181 19 32 -98 32 -289 -1 -132 -23 -164 -25 -295 -19 l-147 7
-45 -47 c-40 -40 -50 -46 -87 -46 -44 0 -43 4 -24 -61 6 -21 4 -21 -102 -17
-87 3 -117 8 -150 26 -51 26 -56 39 -48 114 5 48 4 62 -11 78 -33 37 -82 17
-126 -51 -18 -29 -42 -51 -60 -58 -16 -5 -32 -17 -35 -25 -14 -37 -246 148
-351 279 -237 296 -328 636 -271 1012 6 40 14 70 18 68 5 -3 20 -1 34 5 38 14
56 3 78 -49 29 -68 43 -79 107 -87 101 -11 112 -31 114 -210 l2 -135 43 -40
43 -41 -7 -87 c-6 -83 -5 -90 25 -158 17 -40 34 -94 37 -120 6 -45 87 -214
122 -255 8 -10 28 -18 44 -18 39 0 37 23 -8 85 -43 60 -41 92 6 158 23 32 33
59 37 100 5 46 9 57 24 57 10 0 33 13 51 29 18 15 51 38 73 49 88 45 121 110
105 207 -16 99 -52 154 -119 182 -45 19 -51 28 -51 78 0 45 -1 46 -146 128
-107 61 -162 75 -205 53 -46 -23 -71 -20 -125 17 -56 37 -94 88 -94 127 0 15
-11 40 -25 56 -32 37 -33 79 -1 99 22 15 27 15 62 -4 44 -24 63 -25 117 -10
25 7 41 18 47 33 14 38 67 92 118 122 26 15 63 40 83 55 20 16 66 39 103 53
71 25 106 50 106 74 0 8 -22 35 -49 59 -27 25 -52 57 -56 71 -9 37 -34 62 -62
62 -29 0 -91 -25 -116 -47 -10 -10 -43 -20 -74 -23 l-56 -6 44 37 c92 78 311
198 404 221 28 7 33 -33 20 -148 -7 -58 -6 -62 20 -82 20 -16 41 -22 79 -22
46 0 54 4 87 39 35 37 40 38 112 43 42 3 83 11 92 18 9 8 15 29 15 59 0 56 12
71 58 71 27 0 42 8 66 34 17 19 38 35 47 35 9 1 51 -8 95 -19z m-539 4 c-3 -3
-12 -4 -19 -1 -8 3 -5 6 6 6 11 1 17 -2 13 -5z m1078 -284 c10 -11 16 -20 13
-20 -3 0 -13 9 -23 20 -10 11 -16 20 -13 20 3 0 13 -9 23 -20z m120 -120 c10
-11 16 -20 13 -20 -3 0 -13 9 -23 20 -10 11 -16 20 -13 20 3 0 13 -9 23 -20z
m-1895 7 c0 -2 -10 -12 -22 -23 l-23 -19 19 23 c18 21 26 27 26 19z m2050
-227 c6 -11 8 -20 6 -20 -3 0 -10 9 -16 20 -6 11 -8 20 -6 20 3 0 10 -9 16
-20z m117 -312 c-3 -8 -6 -5 -6 6 -1 11 2 17 5 13 3 -3 4 -12 1 -19z m10 -40
c-3 -8 -6 -5 -6 6 -1 11 2 17 5 13 3 -3 4 -12 1 -19z m-1444 -1505 c-7 -2 -19
-2 -25 0 -7 3 -2 5 12 5 14 0 19 -2 13 -5z m434 1 c-3 -3 -12 -4 -19 -1 -8 3
-5 6 6 6 11 1 17 -2 13 -5z m-354 -11 c-7 -2 -21 -2 -30 0 -10 3 -4 5 12 5 17
0 24 -2 18 -5z m290 0 c-7 -2 -21 -2 -30 0 -10 3 -4 5 12 5 17 0 24 -2 18 -5z
m-125 -10 c-21 -2 -57 -2 -80 0 -24 2 -7 4 37 4 44 0 63 -2 43 -4z"/>
<path d="M15697 24520 c-864 -99 -1599 -619 -1972 -1395 -251 -524 -307 -1138
-156 -1711 189 -714 722 -1331 1403 -1623 230 -99 490 -168 726 -192 170 -17
516 -7 671 21 906 161 1633 778 1929 1640 81 235 120 454 129 720 28 847 -375
1641 -1077 2122 -302 207 -649 343 -1025 403 -118 19 -511 28 -628 15z m576
-993 c250 -91 435 -288 492 -525 23 -94 16 -260 -14 -345 -65 -186 -205 -342
-381 -428 l-70 -34 0 -835 0 -835 -24 -51 c-56 -121 -176 -184 -347 -184 -159
0 -278 61 -337 174 l-27 51 -3 852 -3 851 -67 40 c-261 156 -398 436 -348 712
41 231 227 447 466 544 110 45 100 77 100 -321 0 -192 4 -353 8 -359 19 -29
56 -34 230 -34 166 0 181 2 206 21 l26 20 0 355 c0 303 2 354 15 354 8 0 43
-10 78 -23z"/>
<path d="M15696 22699 c-32 -25 -35 -68 -5 -95 19 -17 39 -19 236 -19 214 0
215 0 234 24 27 33 24 66 -7 90 -25 20 -39 21 -229 21 -190 0 -204 -1 -229
-21z"/>
<path d="M15806 22046 c-21 -13 -49 -41 -62 -62 l-24 -39 0 -673 c0 -560 2
-678 14 -700 19 -36 65 -78 99 -91 40 -15 132 -14 170 3 39 16 82 61 96 99 7
19 11 246 11 687 0 441 -4 668 -11 687 -14 38 -57 83 -96 99 -53 23 -151 18
-197 -10z m183 -1310 c20 -21 26 -36 26 -71 0 -57 -34 -94 -93 -102 -37 -5
-45 -2 -77 30 -49 49 -49 95 0 144 32 32 40 35 77 30 26 -3 51 -15 67 -31z"/>
<path d="M21835 24523 c-1070 -93 -1966 -875 -2200 -1919 -45 -201 -58 -321
-58 -549 0 -244 20 -405 78 -624 114 -428 334 -810 649 -1123 375 -374 839
-608 1371 -693 155 -25 481 -31 649 -11 847 98 1567 607 1941 1371 266 543
322 1157 160 1750 -109 396 -311 747 -605 1049 -414 425 -914 673 -1500 741
-111 13 -376 18 -485 8z m51 -1278 c30 -19 60 -49 79 -79 l30 -49 3 -926 c3
-1026 6 -972 -62 -1049 -33 -37 -96 -71 -133 -72 -21 0 -23 -5 -23 -56 0 -30
-4 -63 -9 -73 -8 -15 -3 -21 29 -35 107 -47 118 -188 21 -253 l-34 -23 -431 0
c-412 0 -432 1 -464 20 -50 31 -74 76 -69 133 5 59 30 94 85 122 31 16 39 24
32 35 -6 8 -10 41 -10 73 0 52 -2 57 -22 57 -68 1 -164 82 -186 159 -9 28 -12
288 -12 953 l0 914 26 52 c14 29 41 64 60 78 69 53 73 54 575 51 l466 -2 49
-30z m1390 0 c30 -19 60 -49 79 -79 l30 -49 3 -926 c3 -1026 6 -972 -62 -1049
-33 -37 -96 -71 -133 -72 -21 0 -23 -5 -23 -56 0 -30 -4 -63 -9 -73 -8 -15 -3
-21 29 -35 107 -47 118 -188 21 -253 l-34 -23 -431 0 c-412 0 -432 1 -464 20
-50 31 -74 76 -69 133 5 59 30 94 85 122 31 16 39 24 32 35 -6 8 -10 41 -10
73 0 52 -2 57 -22 57 -68 1 -164 82 -186 159 -9 28 -12 288 -12 953 l0 914 26
52 c14 29 41 64 60 78 69 53 73 54 575 51 l466 -2 49 -30z"/>
<path d="M21233 23062 c-100 -36 -170 -101 -216 -199 -18 -39 -22 -66 -22
-148 0 -89 3 -106 28 -157 36 -74 101 -139 175 -175 51 -25 68 -28 157 -28 89
0 106 3 156 28 67 32 151 118 182 184 18 39 22 66 22 148 0 89 -3 106 -28 157
-36 73 -101 139 -174 174 -75 37 -201 44 -280 16z m249 -71 c61 -29 112 -80
145 -144 23 -44 28 -64 28 -132 0 -67 -5 -88 -27 -131 -34 -65 -77 -108 -142
-142 -71 -37 -187 -38 -261 -2 -248 121 -223 481 39 566 58 19 160 12 218 -15z"/>
<path d="M21295 22775 c-17 -16 -25 -35 -25 -60 0 -25 8 -44 25 -60 16 -17 35
-25 60 -25 25 0 44 8 60 25 17 16 25 35 25 60 0 25 -8 44 -25 60 -16 17 -35
25 -60 25 -25 0 -44 -8 -60 -25z"/>
<path d="M21229 22142 c-85 -22 -169 -73 -229 -139 -235 -256 -132 -666 198
-785 84 -30 235 -29 317 2 144 55 246 157 297 298 31 84 30 224 -1 315 -81
239 -335 373 -582 309z m197 -53 c273 -50 423 -342 305 -594 -75 -160 -257
-259 -434 -235 -226 32 -395 258 -357 479 30 173 160 310 330 347 71 16 85 16
156 3z"/>
<path d="M21274 21756 c-29 -29 -34 -41 -34 -81 0 -40 5 -52 34 -81 29 -29 41
-34 81 -34 40 0 52 5 81 34 29 29 34 41 34 81 0 40 -5 52 -34 81 -29 29 -41
34 -81 34 -40 0 -52 -5 -81 -34z"/>
<path d="M22623 23062 c-100 -36 -170 -101 -216 -199 -18 -39 -22 -66 -22
-148 0 -89 3 -106 28 -157 36 -74 101 -139 175 -175 51 -25 68 -28 157 -28 89
0 106 3 156 28 67 32 151 118 182 184 18 39 22 66 22 148 0 89 -3 106 -28 157
-36 73 -101 139 -174 174 -75 37 -201 44 -280 16z m249 -71 c61 -29 112 -80
145 -144 23 -44 28 -64 28 -132 0 -67 -5 -88 -27 -131 -34 -65 -77 -108 -142
-142 -71 -37 -187 -38 -261 -2 -248 121 -223 481 39 566 58 19 160 12 218 -15z"/>
<path d="M22685 22775 c-17 -16 -25 -35 -25 -60 0 -25 8 -44 25 -60 16 -17 35
-25 60 -25 25 0 44 8 60 25 17 16 25 35 25 60 0 25 -8 44 -25 60 -16 17 -35
25 -60 25 -25 0 -44 -8 -60 -25z"/>
<path d="M22619 22142 c-85 -22 -169 -73 -229 -139 -235 -256 -132 -666 198
-785 84 -30 235 -29 317 2 144 55 246 157 297 298 31 84 30 224 -1 315 -81
239 -335 373 -582 309z m197 -53 c273 -50 423 -342 305 -594 -75 -160 -257
-259 -434 -235 -226 32 -395 258 -357 479 30 173 160 310 330 347 71 16 85 16
156 3z"/>
<path d="M22664 21756 c-29 -29 -34 -41 -34 -81 0 -40 5 -52 34 -81 29 -29 41
-34 81 -34 40 0 52 5 81 34 29 29 34 41 34 81 0 40 -5 52 -34 81 -29 29 -41
34 -81 34 -40 0 -52 -5 -81 -34z"/>
<path d="M34083 24523 c3 -5 -12 -7 -33 -5 -40 4 -220 -17 -250 -28 -3 -1 -8
-2 -13 -1 -40 6 -462 -117 -490 -143 -7 -6 -16 -11 -22 -11 -27 -1 -85 -30
-81 -41 3 -8 -3 -11 -17 -8 -54 10 -550 -306 -530 -339 4 -6 1 -7 -6 -2 -16
10 -325 -300 -315 -317 4 -6 3 -8 -3 -5 -32 20 -371 -526 -348 -562 3 -6 0
-14 -8 -17 -8 -3 -22 -26 -32 -52 -9 -26 -23 -60 -30 -77 -24 -58 -36 -105
-29 -116 4 -7 3 -9 -3 -6 -17 11 -79 -248 -105 -443 -15 -110 -17 -538 -2
-548 5 -4 10 -23 10 -42 2 -60 13 -151 20 -161 3 -6 7 -20 9 -32 9 -68 46
-215 68 -267 5 -14 12 -33 13 -42 5 -25 78 -208 101 -253 l20 -38 12 109 c31
271 98 568 187 822 30 86 56 162 58 167 2 6 10 26 19 45 8 19 34 77 56 128 66
150 168 335 253 460 16 23 27 46 23 51 -3 5 0 13 6 17 8 5 9 3 4 -7 -15 -27
12 6 75 91 84 112 202 248 289 334 38 38 67 74 64 79 -3 6 -1 7 4 4 6 -4 35
15 65 41 84 73 234 184 346 255 56 36 98 68 94 72 -4 5 -2 5 4 2 7 -4 44 11
83 33 83 45 167 85 266 125 39 16 74 32 80 37 5 4 17 8 28 8 11 0 15 4 11 12
-4 7 -3 8 4 4 6 -4 75 13 152 38 77 25 213 61 302 80 302 64 501 86 878 95
l275 6 -49 34 c-27 19 -55 34 -62 34 -7 0 -11 3 -9 7 2 3 -22 20 -53 36 -31
16 -59 32 -62 35 -10 12 -190 99 -190 92 0 -5 -4 -3 -8 3 -17 25 -351 139
-385 130 -9 -2 -15 0 -11 5 3 5 -3 9 -13 10 -10 0 -25 2 -33 5 -56 16 -230 44
-252 41 -15 -2 -29 0 -30 5 -2 5 -95 11 -207 14 -112 3 -201 2 -198 -3z"/>
<path d="M40085 24520 c-760 -77 -1416 -471 -1838 -1103 -454 -682 -532 -1571
-205 -2339 28 -65 52 -117 54 -115 2 1 10 59 18 127 77 624 299 1222 624 1684
146 208 396 473 582 618 378 294 830 494 1350 598 257 51 690 87 943 78 76 -3
135 -2 130 2 -29 28 -211 138 -310 188 -241 122 -512 209 -773 247 -136 19
-448 28 -575 15z"/>
<path d="M46173 24519 c-879 -78 -1672 -644 -2029 -1450 -136 -306 -201 -594
-211 -935 -12 -393 52 -722 209 -1082 43 -98 57 -105 58 -27 0 22 9 99 20 170
98 657 353 1266 727 1735 102 128 304 331 433 435 457 367 1025 593 1685 670
174 20 516 34 665 28 78 -4 112 -2 105 5 -31 31 -220 143 -350 207 -410 202
-857 285 -1312 244z"/>
<path d="M9735 18463 c-833 -48 -1572 -497 -1997 -1216 -152 -257 -252 -533
-309 -854 -27 -150 -37 -481 -20 -644 59 -574 312 -1101 724 -1511 730 -727
1845 -918 2790 -480 393 183 773 515 1019 892 165 252 283 539 346 840 38 177
47 280 47 510 -1 261 -16 384 -75 615 -114 445 -335 823 -676 1155 -386 376
-860 605 -1396 675 -113 14 -350 24 -453 18z m-325 -1287 c0 -50 46 -216 91
-332 88 -226 268 -466 472 -629 l81 -65 26 48 c68 125 135 195 239 251 196
104 470 61 632 -99 58 -57 117 -159 138 -237 9 -34 18 -43 50 -56 65 -26 156
-47 235 -54 42 -3 79 -10 82 -14 2 -4 -3 -26 -12 -49 -33 -83 -136 -139 -285
-155 l-65 -7 -34 -66 c-116 -223 -295 -428 -482 -549 -103 -67 -295 -159 -411
-198 -289 -97 -567 -110 -800 -39 -45 14 -118 36 -163 49 -378 113 -680 365
-884 738 -23 43 -40 80 -38 82 2 3 20 -7 39 -21 198 -149 406 -224 619 -224
49 0 95 2 103 6 10 3 -10 30 -67 88 -116 118 -180 234 -211 384 -35 165 4 419
81 519 l27 36 34 -42 c44 -52 107 -89 164 -96 65 -8 71 0 52 70 -22 82 -22
241 1 325 30 112 82 196 178 293 48 49 92 86 98 82 5 -3 10 -21 10 -39z"/>
<path d="M21884 18459 c-595 -38 -1160 -294 -1585 -718 -363 -363 -597 -816
-689 -1332 -31 -173 -39 -540 -16 -719 32 -245 96 -476 193 -696 54 -125 55
-124 73 50 32 324 167 809 310 1111 23 50 46 100 51 112 4 12 40 79 79 148
151 271 297 464 514 680 227 226 429 375 698 515 357 185 749 301 1206 355
169 20 514 34 660 28 61 -3 112 -3 112 1 0 12 -194 134 -310 194 -304 159
-633 249 -995 272 -82 5 -157 9 -165 8 -8 0 -69 -4 -136 -9z"/>
<path d="M27915 18459 c-866 -80 -1619 -598 -2000 -1374 -117 -239 -189 -472
-232 -752 -23 -154 -23 -517 0 -678 66 -451 250 -873 532 -1220 101 -125 309
-325 435 -419 619 -461 1401 -608 2151 -402 956 263 1663 1088 1790 2091 16
127 16 451 0 575 -70 547 -301 1037 -669 1421 -348 363 -779 606 -1267 712
-204 45 -534 66 -740 46z m-342 -1544 c17 -8 147 -130 287 -270 l255 -255 265
264 c255 253 267 264 318 276 62 14 112 7 167 -25 54 -31 182 -165 200 -209
19 -46 19 -137 0 -184 -11 -24 -104 -126 -270 -292 l-255 -255 251 -250 c138
-138 259 -267 270 -287 24 -47 26 -146 3 -191 -22 -44 -171 -194 -216 -218
-50 -26 -138 -25 -192 1 -26 12 -136 115 -291 270 l-250 250 -255 -255 c-166
-166 -268 -259 -292 -270 -54 -22 -140 -19 -191 6 -47 25 -153 123 -191 177
-36 53 -49 119 -35 184 11 52 18 60 275 318 l264 265 -251 250 c-138 138 -260
268 -271 290 -28 52 -29 146 -3 195 20 38 133 160 179 193 68 48 156 57 229
22z"/>
<path d="M15645 18445 c-55 -7 -143 -23 -195 -34 -52 -12 -106 -24 -120 -27
-59 -12 -293 -95 -380 -134 -87 -40 -268 -136 -280 -149 -3 -3 -18 -13 -33
-22 -67 -37 -195 -134 -190 -143 3 -5 2 -6 -4 -3 -16 10 -186 -140 -177 -155
3 -5 1 -7 -5 -6 -17 5 -223 -213 -217 -229 3 -8 2 -11 -3 -8 -31 18 -346 -492
-325 -526 4 -7 3 -9 -3 -6 -20 12 -151 -357 -139 -389 3 -8 2 -13 -3 -10 -11
7 -24 -60 -15 -76 4 -6 3 -8 -3 -5 -10 6 -36 -129 -53 -273 -20 -172 4 -690
31 -690 5 0 6 -6 3 -13 -3 -8 0 -34 6 -58 6 -24 13 -55 16 -69 10 -49 46 -175
56 -193 5 -10 11 -28 14 -40 8 -42 40 -117 48 -110 4 4 5 1 2 -7 -3 -8 12 -51
33 -95 l38 -80 7 70 c26 253 99 595 175 819 17 49 28 92 25 97 -3 5 -1 9 4 9
9 0 39 79 34 93 -1 4 2 7 8 7 5 0 10 5 10 12 0 16 113 264 163 358 60 113 185
312 249 397 49 64 56 79 45 92 -10 14 -10 14 3 4 13 -10 23 -4 57 40 22 29 93
107 156 173 64 67 113 125 109 128 -4 4 -2 6 3 5 16 -5 56 21 50 32 -4 5 -3 8
2 7 11 -4 84 53 78 61 -2 4 1 8 8 8 19 0 146 100 139 109 -4 4 -2 4 5 1 6 -4
26 8 44 25 18 18 30 27 25 20 -4 -6 37 16 90 49 127 80 363 195 512 250 64 24
119 46 122 49 3 3 12 6 20 6 8 1 71 18 140 37 343 98 729 147 1165 147 l199 0
-34 24 c-19 13 -38 22 -42 19 -5 -2 -8 0 -8 6 0 16 -138 94 -151 85 -8 -4 -9
-3 -5 4 4 7 -23 26 -73 52 -87 43 -96 46 -85 28 4 -7 3 -8 -5 -4 -6 4 -9 11
-6 15 6 11 -120 64 -265 111 -146 48 -312 85 -465 104 -148 18 -474 19 -610 1z
m455 -1 c0 -8 -19 -13 -24 -6 -3 5 1 9 9 9 8 0 15 -2 15 -3z"/>
<path d="M46095 18445 c-82 -11 -220 -38 -307 -59 -118 -30 -277 -82 -288 -95
-3 -3 -12 -7 -20 -9 -39 -7 -179 -76 -173 -85 3 -6 1 -7 -5 -3 -6 4 -31 -3
-54 -15 -48 -25 -214 -126 -238 -145 -8 -7 -37 -29 -65 -48 -27 -18 -49 -39
-47 -46 1 -6 -2 -9 -8 -5 -5 3 -10 1 -10 -4 0 -6 -4 -10 -9 -8 -15 3 -153
-118 -256 -225 -95 -99 -225 -258 -225 -275 0 -5 -13 -24 -30 -43 -16 -18 -35
-46 -42 -62 -7 -15 -16 -28 -19 -28 -14 0 -19 -34 -7 -42 9 -6 8 -8 -5 -6 -15
2 -33 -24 -83 -122 -57 -112 -132 -287 -138 -322 -1 -7 -4 -17 -7 -23 -8 -13
-27 -72 -33 -105 -3 -14 -17 -70 -31 -125 -30 -120 -54 -283 -52 -354 1 -28
-1 -51 -5 -51 -11 0 -9 -245 2 -345 5 -44 11 -105 14 -135 3 -30 12 -86 21
-125 8 -38 17 -82 20 -96 7 -49 35 -144 74 -259 45 -131 131 -318 129 -280 -1
25 1 40 28 225 8 55 16 114 18 130 3 17 12 60 20 96 9 37 18 80 20 95 2 16 6
36 9 44 3 8 18 58 32 111 56 210 150 459 250 662 30 60 52 115 48 121 -3 6 -3
8 2 4 5 -5 28 26 52 68 23 42 73 122 110 178 38 55 67 107 67 113 -1 7 2 11 6
8 9 -5 71 80 65 89 -3 3 -2 4 1 2 9 -7 94 96 88 106 -3 5 -1 7 4 6 5 -2 49 39
97 90 146 154 328 306 505 421 52 33 100 65 105 69 22 18 296 153 390 192 183
76 434 151 640 190 266 51 466 71 810 79 l270 6 -84 55 c-47 30 -89 54 -93 53
-4 -2 -8 1 -8 6 0 11 -214 121 -315 161 -171 69 -451 148 -481 136 -8 -3 -14
-1 -14 5 0 6 -10 9 -22 8 -13 -2 -28 0 -34 4 -36 22 -544 31 -689 12z"/>
<path d="M3575 12394 c-156 -18 -226 -29 -325 -51 -572 -125 -1084 -453 -1439
-923 -251 -333 -413 -721 -477 -1145 -25 -164 -25 -522 -1 -685 22 -146 66
-326 110 -456 37 -108 117 -297 123 -291 2 2 11 60 19 128 85 690 349 1341
746 1834 116 145 347 371 487 478 429 328 969 539 1576 617 203 26 531 44 694
38 72 -3 132 -4 132 -2 0 8 -152 105 -245 157 -269 151 -596 255 -911 292
-114 13 -403 18 -489 9z"/>
<path d="M21735 12384 c-558 -75 -1046 -315 -1435 -704 -58 -58 -134 -141
-170 -184 -158 -195 -319 -477 -404 -707 -117 -319 -172 -704 -146 -1029 50
-631 304 -1173 752 -1605 380 -367 833 -590 1368 -672 161 -24 529 -24 690 0
568 87 1034 326 1430 733 195 200 328 389 445 629 82 169 128 294 175 479 54
212 73 371 73 606 0 397 -77 737 -247 1085 -368 753 -1078 1260 -1919 1370
-146 19 -471 19 -612 -1z m-307 -1120 c46 -9 115 -34 171 -61 324 -159 461
-555 306 -881 -43 -90 -45 -142 -11 -210 20 -39 94 -122 110 -122 2 0 26 -4
55 -10 45 -8 61 -6 139 20 166 56 344 57 497 5 111 -39 186 -30 252 28 65 57
95 168 74 272 -12 62 0 75 70 75 88 0 154 -40 234 -141 71 -92 152 -248 134
-260 -8 -5 -67 -9 -132 -9 -134 0 -160 -8 -204 -67 -25 -33 -28 -44 -28 -117
0 -74 4 -89 43 -174 57 -126 74 -203 74 -337 -1 -259 -126 -489 -342 -630
-248 -162 -556 -167 -818 -14 -73 44 -207 178 -251 251 -133 227 -147 481 -40
718 34 77 39 97 39 161 -1 120 -56 205 -150 230 -42 11 -52 10 -110 -14 -180
-71 -365 -62 -548 28 -161 80 -280 220 -339 400 -22 68 -26 97 -26 200 0 103
4 132 26 200 108 330 440 527 775 459z"/>
<path d="M34000 12393 c-83 -7 -292 -43 -390 -68 -428 -108 -821 -334 -1135
-650 -205 -206 -338 -392 -465 -650 -176 -357 -252 -681 -254 -1085 -1 -279
26 -473 100 -717 52 -173 162 -437 164 -393 0 9 7 72 15 140 85 695 356 1358
754 1845 229 280 340 387 541 519 421 278 778 428 1240 521 273 56 691 91 958
82 l143 -5 -38 28 c-234 171 -591 325 -910 390 -206 43 -505 60 -723 43z"/>
<path d="M39995 12384 c-395 -53 -753 -189 -1070 -405 -362 -247 -636 -560
-829 -949 -115 -233 -191 -471 -233 -730 -27 -176 -25 -589 4 -760 94 -539
320 -978 697 -1356 284 -283 592 -474 971 -599 898 -299 1895 -54 2550 626
192 200 323 385 440 623 120 246 191 467 232 726 26 164 26 588 0 745 -71 423
-232 797 -490 1140 -78 104 -339 365 -442 442 -380 285 -752 438 -1208 498
-146 19 -481 19 -622 -1z m658 -824 c349 -74 634 -232 875 -485 375 -393 534
-940 427 -1470 -31 -156 -71 -270 -146 -420 -81 -163 -172 -288 -309 -425
-141 -141 -265 -230 -435 -314 -266 -131 -520 -185 -805 -173 -538 23 -1026
301 -1323 752 -110 168 -191 364 -239 580 -19 87 -22 130 -22 325 0 196 2 238
22 327 64 291 185 537 376 762 133 157 354 325 546 414 122 57 290 111 410
131 52 9 106 18 120 20 14 3 111 3 215 1 144 -3 214 -9 288 -25z"/>
<path d="M40076 11294 c-385 -70 -751 -329 -946 -671 -81 -141 -152 -337 -166
-459 l-7 -54 245 0 245 0 18 68 c10 37 40 110 67 162 124 245 348 413 631 474
l27 6 0 245 c0 227 -1 245 -17 244 -10 0 -54 -7 -97 -15z"/>
<path d="M40460 11067 l0 -245 73 -16 c292 -66 552 -305 648 -597 l32 -99 244
0 c225 0 243 1 243 18 0 30 -48 216 -73 283 -162 430 -532 760 -969 863 -56
14 -124 28 -150 32 l-48 6 0 -245z"/>
<path d="M40108 10566 c-198 -70 -361 -237 -422 -433 l-7 -23 255 0 256 0 0
240 c0 132 -3 240 -7 240 -5 0 -38 -11 -75 -24z"/>
<path d="M40460 10350 l0 -240 255 0 c232 0 255 2 255 17 0 9 -18 54 -41 101
-81 168 -263 315 -441 356 l-28 6 0 -240z"/>
<path d="M38951 9779 c18 -164 58 -299 139 -464 163 -331 465 -590 821 -703
52 -17 127 -36 165 -42 38 -6 79 -13 92 -16 l22 -4 -2 246 -3 247 -70 17 c-94
23 -147 44 -222 86 -157 88 -296 235 -375 399 -32 67 -63 170 -84 283 l-4 22
-243 0 -243 0 7 -71z"/>
<path d="M39660 9843 c1 -35 37 -148 65 -207 80 -164 239 -299 413 -349 l52
-16 0 290 0 289 -265 0 c-146 0 -265 -3 -265 -7z"/>
<path d="M40460 9560 c0 -159 2 -290 3 -290 21 0 146 50 197 77 84 47 206 169
252 253 38 68 78 185 78 226 l0 24 -265 0 -265 0 0 -290z"/>
<path d="M41220 9826 c0 -49 -49 -215 -85 -287 -50 -99 -87 -151 -159 -228
-128 -133 -292 -223 -488 -265 l-28 -6 0 -245 0 -245 43 6 c167 25 316 72 460
146 412 211 691 620 743 1086 l7 62 -247 0 -246 0 0 -24z"/>
<path d="M46107 12385 c-839 -106 -1554 -612 -1922 -1360 -181 -367 -263 -745
-252 -1160 9 -354 83 -671 226 -974 l39 -84 5 39 c3 21 9 71 12 109 31 331
164 814 318 1150 160 350 361 646 612 904 495 508 1131 802 1940 897 167 19
513 33 649 27 58 -3 106 -3 106 0 0 10 -135 99 -237 156 -245 138 -541 239
-838 286 -139 23 -517 28 -658 10z"/>
<path d="M3465 6329 c-868 -81 -1618 -596 -2000 -1374 -332 -675 -339 -1447
-19 -2139 32 -70 38 -64 48 59 10 122 54 363 96 530 130 505 333 929 631 1315
74 97 313 343 427 441 57 48 79 80 202 289 76 129 142 234 146 233 4 -1 23
-54 42 -117 l35 -115 107 54 c356 178 742 290 1180 340 171 20 514 34 656 28
l109 -5 -30 25 c-51 43 -226 144 -356 206 -219 105 -470 180 -721 216 -131 19
-423 27 -553 14z"/>
<path d="M15755 6334 c-632 -66 -1146 -309 -1565 -740 -425 -437 -661 -968
-699 -1576 -28 -432 54 -845 245 -1234 241 -493 644 -898 1128 -1133 166 -81
293 -129 448 -171 586 -156 1201 -95 1738 171 604 300 1047 810 1258 1449 74
223 110 435 119 690 14 414 -68 791 -251 1165 -131 266 -266 456 -471 660
-381 382 -840 612 -1395 701 -91 15 -469 27 -555 18z m399 -1567 c75 -58 71
-2 74 -862 2 -537 0 -786 -8 -821 -20 -92 -110 -155 -199 -139 -20 4 -182 86
-361 183 l-325 177 -431 5 -431 5 -37 29 c-75 57 -76 58 -76 530 0 407 1 421
21 464 13 26 38 54 62 70 l40 27 431 5 431 5 325 178 325 178 61 -3 c49 -3 69
-10 98 -31z m1025 18 c66 -34 210 -222 286 -373 171 -343 168 -807 -6 -1154
-68 -134 -220 -332 -280 -363 -95 -50 -209 22 -209 131 0 44 9 59 115 184 73
87 159 259 192 385 35 137 37 337 5 468 -44 179 -117 321 -229 446 -35 41 -69
85 -74 98 -23 62 1 137 56 173 36 24 104 26 144 5z m-392 -386 c42 -15 109
-85 158 -164 175 -283 144 -649 -76 -889 -81 -88 -162 -97 -224 -25 -52 62
-45 124 21 201 88 102 130 226 121 353 -8 110 -43 186 -141 309 -58 73 -38
167 44 208 41 21 58 22 97 7z"/>
<path d="M21826 6330 c-828 -75 -1560 -559 -1963 -1300 -129 -235 -228 -548
-270 -845 -34 -240 -18 -596 37 -845 151 -676 567 -1249 1164 -1603 297 -176
649 -291 1005 -328 144 -15 492 -6 621 15 551 93 1002 323 1380 705 200 203
334 391 460 646 121 246 190 464 231 737 27 179 30 503 6 673 -76 540 -303
1013 -669 1391 -399 412 -878 658 -1440 739 -128 19 -430 27 -562 15z m449
-1531 c55 -16 92 -44 115 -89 19 -38 20 -62 20 -835 0 -649 -3 -802 -14 -828
-27 -66 -113 -114 -186 -104 -22 3 -170 77 -371 186 l-334 181 -413 0 c-394 0
-415 1 -452 20 -22 11 -52 39 -67 62 l-28 42 -3 415 c-3 444 -2 466 45 522 58
68 62 69 517 69 l409 0 326 177 c276 149 344 183 391 192 3 0 23 -4 45 -10z
m709 -569 l121 -119 121 119 c121 120 121 120 169 120 44 0 52 -4 96 -48 90
-90 83 -121 -69 -274 l-116 -118 116 -118 c145 -146 156 -178 86 -257 -39 -45
-77 -65 -123 -65 -33 0 -48 11 -158 119 l-122 120 -122 -120 c-110 -108 -124
-119 -158 -119 -46 0 -84 20 -123 65 -70 79 -59 111 86 257 l116 118 -116 118
c-152 153 -159 184 -69 274 44 44 52 48 96 48 48 0 48 0 169 -120z"/>
<path d="M27949 6330 c-478 -37 -920 -205 -1316 -501 -125 -94 -367 -336 -460
-459 -305 -408 -467 -840 -504 -1343 -22 -315 26 -673 131 -972 35 -99 121
-298 126 -293 2 2 8 46 14 98 84 713 347 1373 747 1870 188 234 461 478 708
635 212 133 523 271 793 349 358 104 882 168 1260 154 72 -3 132 -4 132 -1 0
2 -48 35 -107 74 -305 198 -654 327 -1014 373 -149 19 -377 26 -510 16z"/>
<path d="M46180 6330 c-760 -72 -1422 -467 -1841 -1099 -226 -340 -357 -710
-400 -1126 -15 -147 -6 -469 16 -610 85 -542 329 -1014 721 -1395 408 -397
905 -630 1472 -691 144 -15 490 -6 632 16 397 63 779 224 1099 465 486 366
825 900 940 1480 38 192 46 281 45 505 0 254 -15 377 -74 610 -242 954 -1047
1680 -2022 1826 -154 23 -447 32 -588 19z m-180 -1240 c388 -62 670 -388 670
-774 0 -155 -33 -282 -105 -400 -19 -32 -35 -62 -35 -66 0 -6 1130 -940 1164
-962 7 -5 -35 -53 -109 -128 -66 -66 -123 -120 -126 -120 -3 0 -253 234 -554
520 l-548 519 -28 -20 c-50 -36 -194 -98 -265 -115 -94 -23 -268 -22 -359 1
-534 135 -774 742 -475 1198 165 253 476 393 770 347z"/>
<path d="M45712 4960 c-211 -56 -394 -229 -465 -441 -28 -84 -39 -201 -27
-290 21 -156 82 -280 190 -389 78 -79 158 -129 265 -166 71 -25 94 -28 210
-28 115 0 139 3 212 27 361 121 550 519 416 877 -73 197 -253 358 -459 410
-101 26 -242 26 -342 0z"/>
<path d="M9573 6318 c-46 -6 -83 -14 -83 -18 0 -4 -9 -6 -19 -3 -10 3 -45 -1
-78 -8 -32 -7 -65 -14 -72 -15 -54 -10 -151 -37 -151 -43 0 -3 -12 -7 -28 -7
-80 -4 -437 -168 -612 -282 -231 -150 -462 -364 -620 -572 -76 -101 -143 -202
-143 -217 0 -7 -4 -13 -8 -13 -8 0 -69 -102 -69 -114 0 -4 5 -4 12 0 7 4 8 3
4 -5 -4 -6 -11 -9 -15 -6 -20 12 -183 -384 -196 -475 -1 -8 -7 -27 -13 -42
-15 -35 -59 -265 -67 -351 -6 -50 -4 -71 6 -84 9 -11 10 -14 2 -10 -22 13 -26
-39 -20 -242 10 -329 55 -554 169 -848 22 -57 44 -101 48 -98 5 3 12 0 16 -6
5 -8 3 -9 -6 -4 -14 9 -6 -24 16 -65 l14 -25 -1 30 c-1 17 1 37 4 45 2 8 10
60 17 115 16 141 63 367 106 520 20 72 37 140 38 152 1 11 4 19 9 16 4 -2 8 3
8 11 2 19 3 25 14 51 4 11 29 76 56 145 26 69 70 173 98 233 27 59 47 107 43
107 -4 0 -2 4 4 8 6 4 24 30 39 57 55 96 118 200 158 259 22 33 40 65 40 72 0
7 4 12 8 11 4 -1 31 30 60 68 78 103 191 235 253 296 30 29 52 57 50 61 -3 5
-1 7 4 6 6 -2 41 24 78 57 37 33 85 73 106 90 21 16 38 33 38 37 0 4 5 8 11 8
18 0 99 67 91 75 -4 5 -1 5 6 1 7 -4 28 4 50 21 140 108 490 279 732 358 47
16 87 32 88 37 2 4 7 6 11 4 4 -3 50 6 102 20 343 90 702 133 1124 134 l198 1
-54 37 c-97 65 -232 142 -240 136 -5 -3 -9 -1 -9 4 0 9 -75 49 -102 54 -7 2
-15 6 -18 9 -9 10 -162 71 -265 104 -132 44 -301 81 -455 100 -138 17 -453 18
-587 3z m-1476 -773 c0 -8 -4 -12 -9 -9 -5 3 -6 10 -3 15 9 13 12 11 12 -6z"/>
</g>
</svg>
